{
  "asset": {
    "generator": "Khronos glTF Blender I/O v5.2.40 + blackout glb_to_gltf.py --as-exported",
    "version": "2.0"
  },
  "extensionsUsed": [
    "KHR_materials_specular"
  ],
  "scene": 0,
  "scenes": [
    {
      "name": "Scene",
      "nodes": [
        0
      ]
    }
  ],
  "nodes": [
    {
      "mesh": 0,
      "name": "Object001",
      "rotation": [
        0,
        1,
        0,
        7.549789415861596e-08
      ],
      "scale": [
        0.11749622970819473,
        0.05740465968847275,
        0.11749622970819473
      ],
      "translation": [
        0.8690072298049927,
        -0.13620318472385406,
        -0.0160515196621418
      ]
    }
  ],
  "materials": [
    {
      "doubleSided": true,
      "extensions": {
        "KHR_materials_specular": {
          "specularColorFactor": [
            2.0,
            2.0,
            2.0
          ]
        }
      },
      "name": "01 - Default",
      "pbrMetallicRoughness": {
        "baseColorFactor": [
          0.5807912945747375,
          0.06649498641490936,
          0.01952928863465786,
          1
        ],
        "metallicFactor": 0,
        "roughnessFactor": 0.5527864098548889
      }
    }
  ],
  "meshes": [
    {
      "name": "Mesh",
      "primitives": [
        {
          "attributes": {
            "POSITION": 0,
            "NORMAL": 1,
            "TEXCOORD_0": 2
          },
          "indices": 3,
          "material": 0
        }
      ]
    }
  ],
  "accessors": [
    {
      "bufferView": 0,
      "componentType": 5126,
      "count": 17071,
      "max": [
        17.672128677368164,
        13.255014419555664,
        2.0463950634002686
      ],
      "min": [
        -2.8800408840179443,
        -8.503849983215332,
        -2.3196237087249756
      ],
      "type": "VEC3"
    },
    {
      "bufferView": 1,
      "componentType": 5126,
      "count": 17071,
      "type": "VEC3"
    },
    {
      "bufferView": 2,
      "componentType": 5126,
      "count": 17071,
      "type": "VEC2"
    },
    {
      "bufferView": 3,
      "componentType": 5123,
      "count": 26706,
      "type": "SCALAR"
    }
  ],
  "bufferViews": [
    {
      "buffer": 0,
      "byteLength": 204852,
      "byteOffset": 0,
      "target": 34962
    },
    {
      "buffer": 0,
      "byteLength": 204852,
      "byteOffset": 204852,
      "target": 34962
    },
    {
      "buffer": 0,
      "byteLength": 136568,
      "byteOffset": 409704,
      "target": 34962
    },
    {
      "buffer": 0,
      "byteLength": 53412,
      "byteOffset": 546272,
      "target": 34963
    }
  ],
  "buffers": [
    {
      "byteLength": 599684,
      "uri": "scene.bin"
    }
  ]
}