{
  "asset": {
    "version": "2.0",
    "generator": "blackout split_tileset.py"
  },
  "scene": 0,
  "scenes": [
    {
      "nodes": [
        0
      ]
    }
  ],
  "nodes": [
    {
      "mesh": 0,
      "name": "center_b"
    }
  ],
  "meshes": [
    {
      "name": "Plane.001",
      "primitives": [
        {
          "attributes": {
            "POSITION": 1,
            "NORMAL": 0,
            "TEXCOORD_0": 2
          },
          "indices": 3,
          "material": 0
        }
      ]
    }
  ],
  "accessors": [
    {
      "bufferView": 0,
      "componentType": 5126,
      "count": 38,
      "type": "VEC3"
    },
    {
      "bufferView": 1,
      "componentType": 5126,
      "count": 38,
      "max": [
        1,
        1,
        1
      ],
      "min": [
        -1,
        1,
        -1
      ],
      "type": "VEC3"
    },
    {
      "bufferView": 2,
      "componentType": 5126,
      "count": 38,
      "type": "VEC2"
    },
    {
      "bufferView": 3,
      "componentType": 5123,
      "count": 108,
      "type": "SCALAR"
    }
  ],
  "bufferViews": [
    {
      "buffer": 0,
      "byteOffset": 0,
      "byteLength": 456,
      "target": 34962
    },
    {
      "buffer": 0,
      "byteOffset": 456,
      "byteLength": 456,
      "target": 34962
    },
    {
      "buffer": 0,
      "byteOffset": 912,
      "byteLength": 304,
      "target": 34962
    },
    {
      "buffer": 0,
      "byteOffset": 1216,
      "byteLength": 216,
      "target": 34963
    }
  ],
  "images": [
    {
      "name": "ColorPalette",
      "uri": "textures/ColorPalette.png"
    }
  ],
  "buffers": [
    {
      "uri": "scene.bin",
      "byteLength": 1432
    }
  ],
  "materials": [
    {
      "alphaMode": "BLEND",
      "doubleSided": true,
      "name": "Tileset_rock",
      "pbrMetallicRoughness": {
        "baseColorTexture": {
          "index": 0
        },
        "metallicFactor": 0
      }
    },
    {
      "alphaMode": "BLEND",
      "doubleSided": true,
      "name": "Tileset_grass",
      "pbrMetallicRoughness": {
        "baseColorTexture": {
          "index": 1
        },
        "metallicFactor": 0
      }
    }
  ],
  "textures": [
    {
      "sampler": 0,
      "source": 0
    },
    {
      "sampler": 0,
      "source": 0
    }
  ],
  "samplers": [
    {
      "magFilter": 9729,
      "minFilter": 9987
    }
  ]
}