{
	"asset":{
		"generator":"Khronos glTF Blender I/O v5.2.40",
		"version":"2.0"
	},
	"scene":0,
	"scenes":[
		{
			"name":"Scene",
			"nodes":[
				0,
				1,
				2
			]
		}
	],
	"nodes":[
		{
			"mesh":0,
			"name":"Cube"
		},
		{
			"name":"Empty",
			"rotation":[
				0.70710688829422,
				0,
				0,
				0.7071066498756409
			],
			"translation":[
				0,
				0,
				-5.120023250579834
			]
		},
		{
			"name":"Empty.001",
			"rotation":[
				0.5,
				0.5,
				-0.5,
				0.5
			],
			"scale":[
				2.976658582687378,
				2.976658582687378,
				2.976658582687378
			],
			"translation":[
				-6.8599724769592285,
				-1.558149814605713,
				0
			]
		}
	],
	"materials":[
		{
			"doubleSided":true,
			"name":"Material",
			"pbrMetallicRoughness":{
				"baseColorTexture":{
					"index":0
				},
				"metallicFactor":0
			}
		}
	],
	"meshes":[
		{
			"name":"Cube",
			"primitives":[
				{
					"attributes":{
						"POSITION":0,
						"NORMAL":1,
						"TEXCOORD_0":2
					},
					"indices":3,
					"material":0
				}
			]
		}
	],
	"textures":[
		{
			"sampler":0,
			"source":0
		}
	],
	"images":[
		{
			"mimeType":"image/png",
			"name":"base",
			"uri":"textures/base.png"
		}
	],
	"accessors":[
		{
			"bufferView":0,
			"componentType":5126,
			"count":1969,
			"max":[
				1.6675972938537598,
				2.1215617656707764,
				0.5704160332679749
			],
			"min":[
				-1.6675972938537598,
				-2.414801597595215,
				-0.5956817865371704
			],
			"type":"VEC3"
		},
		{
			"bufferView":1,
			"componentType":5126,
			"count":1969,
			"type":"VEC3"
		},
		{
			"bufferView":2,
			"componentType":5126,
			"count":1969,
			"type":"VEC2"
		},
		{
			"bufferView":3,
			"componentType":5123,
			"count":5286,
			"type":"SCALAR"
		}
	],
	"bufferViews":[
		{
			"buffer":0,
			"byteLength":23628,
			"byteOffset":0,
			"target":34962
		},
		{
			"buffer":0,
			"byteLength":23628,
			"byteOffset":23628,
			"target":34962
		},
		{
			"buffer":0,
			"byteLength":15752,
			"byteOffset":47256,
			"target":34962
		},
		{
			"buffer":0,
			"byteLength":10572,
			"byteOffset":63008,
			"target":34963
		}
	],
	"samplers":[
		{
			"magFilter":9728,
			"minFilter":9984
		}
	],
	"buffers":[
		{
			"byteLength":73580,
			"uri":"scene.bin"
		}
	]
}
