{
  "asset": {
    "generator": "Khronos glTF Blender I/O v5.0.21 + blackout glb_to_gltf.py",
    "version": "2.0"
  },
  "scene": 0,
  "scenes": [
    {
      "name": "Scene",
      "nodes": [
        0
      ]
    }
  ],
  "nodes": [
    {
      "mesh": 0,
      "name": "Meat Haunch"
    }
  ],
  "meshes": [
    {
      "name": "Circle.046",
      "primitives": [
        {
          "attributes": {
            "POSITION": 0,
            "NORMAL": 1,
            "TEXCOORD_0": 2
          },
          "indices": 3,
          "material": 0
        }
      ]
    }
  ],
  "accessors": [
    {
      "bufferView": 0,
      "componentType": 5126,
      "count": 286,
      "max": [
        0.05285480245947838,
        0.1057107001543045,
        0.13169945776462555
      ],
      "min": [
        -0.05285480245947838,
        1.0766088962554932e-06,
        -0.13169945776462555
      ],
      "type": "VEC3"
    },
    {
      "bufferView": 1,
      "componentType": 5126,
      "count": 286,
      "type": "VEC3"
    },
    {
      "bufferView": 2,
      "componentType": 5126,
      "count": 286,
      "type": "VEC2"
    },
    {
      "bufferView": 3,
      "componentType": 5123,
      "count": 768,
      "type": "SCALAR"
    }
  ],
  "bufferViews": [
    {
      "buffer": 0,
      "byteLength": 3432,
      "byteOffset": 0,
      "target": 34962
    },
    {
      "buffer": 0,
      "byteLength": 3432,
      "byteOffset": 3432,
      "target": 34962
    },
    {
      "buffer": 0,
      "byteLength": 2288,
      "byteOffset": 6864,
      "target": 34962
    },
    {
      "buffer": 0,
      "byteLength": 1536,
      "byteOffset": 9152,
      "target": 34963
    }
  ],
  "buffers": [
    {
      "byteLength": 10688,
      "uri": "scene.bin"
    }
  ],
  "materials": [
    {
      "name": "T_protein_atlas_diffuse",
      "alphaMode": "OPAQUE",
      "pbrMetallicRoughness": {
        "baseColorTexture": {
          "index": 0
        },
        "metallicFactor": 0.0,
        "roughnessFactor": 0.7
      }
    }
  ],
  "textures": [
    {
      "sampler": 0,
      "source": 0
    }
  ],
  "images": [
    {
      "name": "T_protein_atlas_diffuse",
      "mimeType": "image/png",
      "uri": "../Textures/T_protein_atlas_diffuse.png"
    }
  ],
  "samplers": [
    {
      "magFilter": 9729,
      "minFilter": 9987,
      "wrapS": 10497,
      "wrapT": 10497
    }
  ]
}