{
  "asset": {
    "generator": "Khronos glTF Blender I/O v5.2.40 + blackout glb_to_gltf.py --as-exported",
    "version": "2.0"
  },
  "extensionsUsed": [
    "KHR_materials_specular",
    "KHR_materials_ior"
  ],
  "scene": 0,
  "scenes": [
    {
      "name": "Scene",
      "nodes": [
        0,
        1,
        2,
        3,
        4,
        5,
        6,
        7,
        8,
        9,
        10,
        11,
        12,
        13,
        14,
        15,
        16,
        17,
        18,
        19,
        20,
        21,
        22,
        23,
        24,
        25,
        26,
        27,
        28,
        29,
        30,
        31
      ]
    }
  ],
  "nodes": [
    {
      "mesh": 0,
      "name": "Cube",
      "translation": [
        0,
        2.0005228519439697,
        0
      ]
    },
    {
      "mesh": 1,
      "name": "Cube.001",
      "translation": [
        0,
        2.0005228519439697,
        0
      ]
    },
    {
      "mesh": 2,
      "name": "Cube.002",
      "translation": [
        0,
        2.0005228519439697,
        0
      ]
    },
    {
      "mesh": 3,
      "name": "Cube.003",
      "translation": [
        0,
        2.0005228519439697,
        0
      ]
    },
    {
      "mesh": 4,
      "name": "Cube.004",
      "translation": [
        0,
        2.0005228519439697,
        0
      ]
    },
    {
      "mesh": 5,
      "name": "Cube.005",
      "translation": [
        0,
        2.0005228519439697,
        0
      ]
    },
    {
      "mesh": 6,
      "name": "Cube.006",
      "scale": [
        0.06282686442136765,
        0.5107858777046204,
        0.2486577183008194
      ],
      "translation": [
        0.9818341732025146,
        1.9333041906356812,
        -0.4654259979724884
      ]
    },
    {
      "mesh": 7,
      "name": "Cube.007",
      "translation": [
        0,
        2.0005228519439697,
        0
      ]
    },
    {
      "mesh": 8,
      "name": "Cylinder",
      "rotation": [
        0.7071068286895752,
        0,
        0,
        0.7071068286895752
      ],
      "scale": [
        0.3817826509475708,
        0.3817826509475708,
        0.3817826509475708
      ],
      "translation": [
        0,
        2.0739049911499023,
        1.3384853601455688
      ]
    },
    {
      "mesh": 9,
      "name": "Cylinder.001",
      "rotation": [
        0.7071068286895752,
        0,
        0,
        0.7071068286895752
      ],
      "scale": [
        0.3817826509475708,
        0.3817826509475708,
        0.3817826509475708
      ],
      "translation": [
        0,
        2.0739049911499023,
        1.3384853601455688
      ]
    },
    {
      "mesh": 10,
      "name": "Cylinder.002",
      "rotation": [
        0,
        0,
        -0.7071068286895752,
        0.7071068286895752
      ],
      "scale": [
        0.19239303469657898,
        0.07101066410541534,
        0.19239303469657898
      ],
      "translation": [
        1.0603264570236206,
        0.26549339294433594,
        0.6710073947906494
      ]
    },
    {
      "mesh": 11,
      "name": "Cylinder.003",
      "rotation": [
        0.7071068286895752,
        0,
        0,
        0.7071068286895752
      ],
      "scale": [
        0.03918769955635071,
        0.02185593731701374,
        0.03918769955635071
      ],
      "translation": [
        0.9024006128311157,
        0.0736539363861084,
        1.0613064765930176
      ]
    },
    {
      "mesh": 12,
      "name": "Cylinder.004",
      "rotation": [
        0,
        0,
        -0.7071068286895752,
        0.7071068286895752
      ],
      "scale": [
        0.19239303469657898,
        0.07101066410541534,
        0.19239303469657898
      ],
      "translation": [
        1.0603264570236206,
        0.26549339294433594,
        0.6710073947906494
      ]
    },
    {
      "mesh": 13,
      "name": "Cylinder.005",
      "rotation": [
        0,
        0,
        -0.7071068286895752,
        0.7071068286895752
      ],
      "scale": [
        0.2609446346759796,
        0.2609446346759796,
        0.2609446346759796
      ],
      "translation": [
        0,
        -0.5674072504043579,
        0.4130364954471588
      ]
    },
    {
      "mesh": 14,
      "name": "Cylinder.006",
      "rotation": [
        0.022939028218388557,
        -0.02293902263045311,
        -0.7067345976829529,
        0.7067346572875977
      ],
      "scale": [
        0.11285340040922165,
        0.10966508090496063,
        0.11285339295864105
      ],
      "translation": [
        1.292638897895813,
        -1.0176984071731567,
        0.6417489647865295
      ]
    },
    {
      "mesh": 15,
      "name": "Cylinder.007",
      "scale": [
        0.42520201206207275,
        0.42520201206207275,
        0.42520201206207275
      ],
      "translation": [
        0,
        1.6927262544631958,
        -1.476157546043396
      ]
    },
    {
      "mesh": 16,
      "name": "Cylinder.008",
      "scale": [
        0.42520201206207275,
        0.42520201206207275,
        0.42520201206207275
      ],
      "translation": [
        0,
        1.6927262544631958,
        -1.476157546043396
      ]
    },
    {
      "mesh": 17,
      "name": "Cylinder.009",
      "scale": [
        0.42520201206207275,
        0.42520201206207275,
        0.42520201206207275
      ],
      "translation": [
        0,
        1.6927262544631958,
        -1.476157546043396
      ]
    },
    {
      "mesh": 18,
      "name": "Cylinder.010"
    },
    {
      "mesh": 19,
      "name": "Cylinder.011",
      "scale": [
        0.5780993700027466,
        0.10244099795818329,
        0.5780993700027466
      ],
      "translation": [
        0,
        3.052713394165039,
        0
      ]
    },
    {
      "mesh": 20,
      "name": "Cylinder.012",
      "scale": [
        0.5780993700027466,
        0.10244099795818329,
        0.5780993700027466
      ],
      "translation": [
        0,
        3.052713394165039,
        0
      ]
    },
    {
      "mesh": 21,
      "name": "Cylinder.013",
      "rotation": [
        0.022939028218388557,
        -0.02293902263045311,
        -0.7067345976829529,
        0.7067346572875977
      ],
      "scale": [
        0.11285340040922165,
        0.10966508090496063,
        0.11285339295864105
      ],
      "translation": [
        1.292638897895813,
        -1.0176984071731567,
        0.6417489647865295
      ]
    },
    {
      "mesh": 22,
      "name": "Cylinder.014",
      "rotation": [
        0.022939028218388557,
        -0.02293902263045311,
        -0.7067345976829529,
        0.7067346572875977
      ],
      "scale": [
        0.11285340040922165,
        0.10966508090496063,
        0.11285339295864105
      ],
      "translation": [
        1.292638897895813,
        -1.0176984071731567,
        0.6417489647865295
      ]
    },
    {
      "mesh": 23,
      "name": "Cylinder.015",
      "rotation": [
        0,
        0,
        -0.7071068286895752,
        0.7071068286895752
      ],
      "scale": [
        0.2609446346759796,
        0.2609446346759796,
        0.2609446346759796
      ],
      "translation": [
        0,
        -0.5674072504043579,
        0.4130364954471588
      ]
    },
    {
      "mesh": 24,
      "name": "Cylinder.016",
      "rotation": [
        0.022939028218388557,
        -0.02293902263045311,
        -0.7067345976829529,
        0.7067346572875977
      ],
      "scale": [
        0.11285340040922165,
        0.10966508090496063,
        0.11285339295864105
      ],
      "translation": [
        1.292638897895813,
        -1.0176984071731567,
        0.6417489647865295
      ]
    },
    {
      "mesh": 25,
      "name": "Cylinder.017",
      "rotation": [
        0.022939028218388557,
        -0.02293902263045311,
        -0.7067345976829529,
        0.7067346572875977
      ],
      "scale": [
        0.11285340040922165,
        0.10966508090496063,
        0.11285339295864105
      ],
      "translation": [
        1.292638897895813,
        -1.0176984071731567,
        0.6417489647865295
      ]
    },
    {
      "mesh": 26,
      "name": "Cylinder.018",
      "rotation": [
        0.022939028218388557,
        -0.02293902263045311,
        -0.7067345976829529,
        0.7067346572875977
      ],
      "scale": [
        0.11285340040922165,
        0.10966508090496063,
        0.11285339295864105
      ],
      "translation": [
        1.292638897895813,
        -1.0176984071731567,
        0.6417489647865295
      ]
    },
    {
      "mesh": 27,
      "name": "Cylinder.019",
      "rotation": [
        0.022939028218388557,
        -0.02293902263045311,
        -0.7067345976829529,
        0.7067346572875977
      ],
      "scale": [
        0.11285340040922165,
        0.10966508090496063,
        0.11285339295864105
      ],
      "translation": [
        1.292638897895813,
        -1.0176984071731567,
        0.6417489647865295
      ]
    },
    {
      "mesh": 28,
      "name": "Cylinder.020",
      "rotation": [
        0.022939028218388557,
        -0.02293902263045311,
        -0.7067345976829529,
        0.7067346572875977
      ],
      "scale": [
        0.11285340040922165,
        0.10966508090496063,
        0.11285339295864105
      ],
      "translation": [
        1.292638897895813,
        -1.0176984071731567,
        0.6417489647865295
      ]
    },
    {
      "mesh": 29,
      "name": "Cylinder.021",
      "rotation": [
        0.022939028218388557,
        -0.02293902263045311,
        -0.7067345976829529,
        0.7067346572875977
      ],
      "scale": [
        0.11285340040922165,
        0.10966508090496063,
        0.11285339295864105
      ],
      "translation": [
        1.292638897895813,
        -1.0176984071731567,
        0.6417489647865295
      ]
    },
    {
      "mesh": 30,
      "name": "Cylinder.022",
      "rotation": [
        0.022939028218388557,
        -0.02293902263045311,
        -0.7067345976829529,
        0.7067346572875977
      ],
      "scale": [
        0.11285340040922165,
        0.10966508090496063,
        0.11285339295864105
      ],
      "translation": [
        1.292638897895813,
        -1.0176984071731567,
        0.6417489647865295
      ]
    },
    {
      "mesh": 31,
      "name": "Sphere",
      "scale": [
        0.05032949894666672,
        0.05032949894666672,
        0.05032949894666672
      ],
      "translation": [
        0.8434582948684692,
        4.0140380859375,
        -0.7576354742050171
      ]
    }
  ],
  "materials": [
    {
      "doubleSided": true,
      "name": "blue",
      "pbrMetallicRoughness": {
        "baseColorFactor": [
          0.12657976150512695,
          0.36770251393318176,
          0.5173337459564209,
          1
        ],
        "metallicFactor": 0,
        "roughnessFactor": 0.5
      }
    },
    {
      "doubleSided": true,
      "name": "orange",
      "pbrMetallicRoughness": {
        "baseColorFactor": [
          0.8000000715255737,
          0.3426769971847534,
          0.12796132266521454,
          1
        ],
        "metallicFactor": 0,
        "roughnessFactor": 0.5
      }
    },
    {
      "doubleSided": true,
      "extensions": {
        "KHR_materials_specular": {
          "specularFactor": 0
        },
        "KHR_materials_ior": {
          "ior": 1.4500000476837158
        }
      },
      "name": "black",
      "pbrMetallicRoughness": {
        "baseColorFactor": [
          0,
          0,
          0,
          1
        ],
        "metallicFactor": 0,
        "roughnessFactor": 0.5
      }
    },
    {
      "doubleSided": true,
      "extensions": {
        "KHR_materials_specular": {
          "specularFactor": 0.5743038058280945
        },
        "KHR_materials_ior": {
          "ior": 1.4500000476837158
        }
      },
      "name": "Gray metal",
      "pbrMetallicRoughness": {
        "baseColorFactor": [
          0.08001174032688141,
          0.08001174032688141,
          0.08001174032688141,
          1
        ],
        "metallicFactor": 0.052056074142456055,
        "roughnessFactor": 0.32339707016944885
      }
    },
    {
      "doubleSided": true,
      "name": "Glass"
    },
    {
      "doubleSided": true,
      "name": "bolt",
      "pbrMetallicRoughness": {
        "baseColorFactor": [
          0.37574970722198486,
          0.30904722213745117,
          0.15271742641925812,
          1
        ],
        "metallicFactor": 0,
        "roughnessFactor": 0.5
      }
    },
    {
      "doubleSided": true,
      "name": "white",
      "pbrMetallicRoughness": {
        "baseColorFactor": [
          0.5173337459564209,
          0.5173337459564209,
          0.5173337459564209,
          1
        ],
        "metallicFactor": 0,
        "roughnessFactor": 0.5
      }
    },
    {
      "doubleSided": true,
      "name": "yellow",
      "pbrMetallicRoughness": {
        "baseColorFactor": [
          0.8000000715255737,
          0.489931583404541,
          0,
          1
        ],
        "metallicFactor": 0,
        "roughnessFactor": 0.5
      }
    },
    {
      "doubleSided": true,
      "extensions": {
        "KHR_materials_specular": {
          "specularFactor": 0.5743038058280945
        },
        "KHR_materials_ior": {
          "ior": 1.4500000476837158
        }
      },
      "name": "Gray metal(2).001",
      "pbrMetallicRoughness": {
        "baseColorFactor": [
          0.2956925630569458,
          0.2956925630569458,
          0.2956925630569458,
          1
        ],
        "metallicFactor": 0.052056074142456055,
        "roughnessFactor": 0.32339707016944885
      }
    }
  ],
  "meshes": [
    {
      "name": "Cube.001",
      "primitives": [
        {
          "attributes": {
            "POSITION": 0,
            "NORMAL": 1,
            "TEXCOORD_0": 2
          },
          "indices": 3,
          "material": 0
        }
      ]
    },
    {
      "name": "Cube.002",
      "primitives": [
        {
          "attributes": {
            "POSITION": 4,
            "NORMAL": 5,
            "TEXCOORD_0": 6
          },
          "indices": 7,
          "material": 0
        }
      ]
    },
    {
      "name": "Cube.003",
      "primitives": [
        {
          "attributes": {
            "POSITION": 8,
            "NORMAL": 9,
            "TEXCOORD_0": 10
          },
          "indices": 11,
          "material": 1
        }
      ]
    },
    {
      "name": "Cube.010",
      "primitives": [
        {
          "attributes": {
            "POSITION": 12,
            "NORMAL": 13,
            "TEXCOORD_0": 14
          },
          "indices": 15,
          "material": 1
        }
      ]
    },
    {
      "name": "Cube.011",
      "primitives": [
        {
          "attributes": {
            "POSITION": 16,
            "NORMAL": 17,
            "TEXCOORD_0": 18
          },
          "indices": 19,
          "material": 0
        }
      ]
    },
    {
      "name": "Cube.015",
      "primitives": [
        {
          "attributes": {
            "POSITION": 20,
            "NORMAL": 21,
            "TEXCOORD_0": 22
          },
          "indices": 23,
          "material": 2
        }
      ]
    },
    {
      "name": "Cube.016",
      "primitives": [
        {
          "attributes": {
            "POSITION": 24,
            "NORMAL": 25,
            "TEXCOORD_0": 26
          },
          "indices": 27,
          "material": 1
        }
      ]
    },
    {
      "name": "Cube.017",
      "primitives": [
        {
          "attributes": {
            "POSITION": 28,
            "NORMAL": 29,
            "TEXCOORD_0": 30
          },
          "indices": 31,
          "material": 2
        }
      ]
    },
    {
      "name": "Cylinder",
      "primitives": [
        {
          "attributes": {
            "POSITION": 32,
            "NORMAL": 33,
            "TEXCOORD_0": 34
          },
          "indices": 35,
          "material": 3
        }
      ]
    },
    {
      "name": "Cylinder.001",
      "primitives": [
        {
          "attributes": {
            "POSITION": 36,
            "NORMAL": 37,
            "TEXCOORD_0": 38
          },
          "indices": 39,
          "material": 4
        }
      ]
    },
    {
      "name": "Cylinder.018",
      "primitives": [
        {
          "attributes": {
            "POSITION": 40,
            "NORMAL": 41,
            "TEXCOORD_0": 42
          },
          "indices": 43,
          "material": 1
        }
      ]
    },
    {
      "name": "Cylinder.003",
      "primitives": [
        {
          "attributes": {
            "POSITION": 44,
            "NORMAL": 45,
            "TEXCOORD_0": 46
          },
          "indices": 47,
          "material": 5
        }
      ]
    },
    {
      "name": "Cylinder.004",
      "primitives": [
        {
          "attributes": {
            "POSITION": 48,
            "NORMAL": 49,
            "TEXCOORD_0": 50
          },
          "indices": 51,
          "material": 0
        }
      ]
    },
    {
      "name": "Cylinder.006",
      "primitives": [
        {
          "attributes": {
            "POSITION": 52,
            "NORMAL": 53,
            "TEXCOORD_0": 54
          },
          "indices": 55,
          "material": 0
        }
      ]
    },
    {
      "name": "Cylinder.007",
      "primitives": [
        {
          "attributes": {
            "POSITION": 56,
            "NORMAL": 57,
            "TEXCOORD_0": 58
          },
          "indices": 59,
          "material": 3
        }
      ]
    },
    {
      "name": "Cylinder.011",
      "primitives": [
        {
          "attributes": {
            "POSITION": 60,
            "NORMAL": 61,
            "TEXCOORD_0": 62
          },
          "indices": 63,
          "material": 1
        }
      ]
    },
    {
      "name": "Cylinder.012",
      "primitives": [
        {
          "attributes": {
            "POSITION": 64,
            "NORMAL": 65,
            "TEXCOORD_0": 66
          },
          "indices": 67,
          "material": 3
        }
      ]
    },
    {
      "name": "Cylinder.013",
      "primitives": [
        {
          "attributes": {
            "POSITION": 68,
            "NORMAL": 69,
            "TEXCOORD_0": 70
          },
          "indices": 71,
          "material": 6
        }
      ]
    },
    {
      "name": "Cylinder.014",
      "primitives": [
        {
          "attributes": {
            "POSITION": 72,
            "NORMAL": 73,
            "TEXCOORD_0": 74
          },
          "indices": 75,
          "material": 3
        }
      ]
    },
    {
      "name": "Cylinder.015",
      "primitives": [
        {
          "attributes": {
            "POSITION": 76,
            "NORMAL": 77,
            "TEXCOORD_0": 78
          },
          "indices": 79,
          "material": 0
        }
      ]
    },
    {
      "name": "Cylinder.016",
      "primitives": [
        {
          "attributes": {
            "POSITION": 80,
            "NORMAL": 81,
            "TEXCOORD_0": 82
          },
          "indices": 83,
          "material": 7
        }
      ]
    },
    {
      "name": "Cylinder.017",
      "primitives": [
        {
          "attributes": {
            "POSITION": 84,
            "NORMAL": 85,
            "TEXCOORD_0": 86
          },
          "indices": 87,
          "material": 8
        }
      ]
    },
    {
      "name": "Cylinder.023",
      "primitives": [
        {
          "attributes": {
            "POSITION": 88,
            "NORMAL": 89,
            "TEXCOORD_0": 90
          },
          "indices": 91,
          "material": 0
        }
      ]
    },
    {
      "name": "Cylinder.020",
      "primitives": [
        {
          "attributes": {
            "POSITION": 92,
            "NORMAL": 93,
            "TEXCOORD_0": 94
          },
          "indices": 95,
          "material": 1
        }
      ]
    },
    {
      "name": "Cylinder.022",
      "primitives": [
        {
          "attributes": {
            "POSITION": 96,
            "NORMAL": 97,
            "TEXCOORD_0": 98
          },
          "indices": 99,
          "material": 1
        }
      ]
    },
    {
      "name": "Cylinder.024",
      "primitives": [
        {
          "attributes": {
            "POSITION": 100,
            "NORMAL": 101,
            "TEXCOORD_0": 102
          },
          "indices": 103,
          "material": 8
        }
      ]
    },
    {
      "name": "Cylinder.025",
      "primitives": [
        {
          "attributes": {
            "POSITION": 104,
            "NORMAL": 105,
            "TEXCOORD_0": 106
          },
          "indices": 107,
          "material": 3
        }
      ]
    },
    {
      "name": "Cylinder.026",
      "primitives": [
        {
          "attributes": {
            "POSITION": 108,
            "NORMAL": 109,
            "TEXCOORD_0": 110
          },
          "indices": 111,
          "material": 3
        }
      ]
    },
    {
      "name": "Cylinder.027",
      "primitives": [
        {
          "attributes": {
            "POSITION": 112,
            "NORMAL": 113,
            "TEXCOORD_0": 114
          },
          "indices": 115,
          "material": 0
        }
      ]
    },
    {
      "name": "Cylinder.028",
      "primitives": [
        {
          "attributes": {
            "POSITION": 116,
            "NORMAL": 117,
            "TEXCOORD_0": 118
          },
          "indices": 119,
          "material": 1
        }
      ]
    },
    {
      "name": "Cylinder.029",
      "primitives": [
        {
          "attributes": {
            "POSITION": 120,
            "NORMAL": 121,
            "TEXCOORD_0": 122
          },
          "indices": 123,
          "material": 1
        }
      ]
    },
    {
      "name": "Sphere",
      "primitives": [
        {
          "attributes": {
            "POSITION": 124,
            "NORMAL": 125,
            "TEXCOORD_0": 126
          },
          "indices": 127,
          "material": 1
        }
      ]
    }
  ],
  "accessors": [
    {
      "bufferView": 0,
      "componentType": 5126,
      "count": 978,
      "max": [
        1,
        1,
        1
      ],
      "min": [
        -1,
        -2.2838261127471924,
        -1
      ],
      "type": "VEC3"
    },
    {
      "bufferView": 1,
      "componentType": 5126,
      "count": 978,
      "type": "VEC3"
    },
    {
      "bufferView": 2,
      "componentType": 5126,
      "count": 978,
      "type": "VEC2"
    },
    {
      "bufferView": 3,
      "componentType": 5123,
      "count": 1854,
      "type": "SCALAR"
    },
    {
      "bufferView": 4,
      "componentType": 5126,
      "count": 624,
      "max": [
        1,
        1,
        1.0728594064712524
      ],
      "min": [
        0,
        -1.3052196502685547,
        0.9891204237937927
      ],
      "type": "VEC3"
    },
    {
      "bufferView": 5,
      "componentType": 5126,
      "count": 624,
      "type": "VEC3"
    },
    {
      "bufferView": 6,
      "componentType": 5126,
      "count": 624,
      "type": "VEC2"
    },
    {
      "bufferView": 7,
      "componentType": 5123,
      "count": 1206,
      "type": "SCALAR"
    },
    {
      "bufferView": 8,
      "componentType": 5126,
      "count": 640,
      "max": [
        1,
        -1.3123769760131836,
        1.0728192329406738
      ],
      "min": [
        0,
        -2.00632381439209,
        0.9938117265701294
      ],
      "type": "VEC3"
    },
    {
      "bufferView": 9,
      "componentType": 5126,
      "count": 640,
      "type": "VEC3"
    },
    {
      "bufferView": 10,
      "componentType": 5126,
      "count": 640,
      "type": "VEC2"
    },
    {
      "bufferView": 11,
      "componentType": 5123,
      "count": 1254,
      "type": "SCALAR"
    },
    {
      "bufferView": 12,
      "componentType": 5126,
      "count": 56,
      "max": [
        0.5598090887069702,
        -1.5177631378173828,
        1.13831627368927
      ],
      "min": [
        0.3978164792060852,
        -2.0801749229431152,
        0.9317660331726074
      ],
      "type": "VEC3"
    },
    {
      "bufferView": 13,
      "componentType": 5126,
      "count": 56,
      "type": "VEC3"
    },
    {
      "bufferView": 14,
      "componentType": 5126,
      "count": 56,
      "type": "VEC2"
    },
    {
      "bufferView": 15,
      "componentType": 5123,
      "count": 108,
      "type": "SCALAR"
    },
    {
      "bufferView": 16,
      "componentType": 5126,
      "count": 632,
      "max": [
        0.3951737880706787,
        -1.4566972255706787,
        1.1035346984863281
      ],
      "min": [
        0,
        -1.9937552213668823,
        1.0728192329406738
      ],
      "type": "VEC3"
    },
    {
      "bufferView": 17,
      "componentType": 5126,
      "count": 632,
      "type": "VEC3"
    },
    {
      "bufferView": 18,
      "componentType": 5126,
      "count": 632,
      "type": "VEC2"
    },
    {
      "bufferView": 19,
      "componentType": 5123,
      "count": 1296,
      "type": "SCALAR"
    },
    {
      "bufferView": 20,
      "componentType": 5126,
      "count": 78,
      "max": [
        0.30071574449539185,
        -1.587218999862671,
        1.0782750844955444
      ],
      "min": [
        0,
        -1.8697843551635742,
        1.0782750844955444
      ],
      "type": "VEC3"
    },
    {
      "bufferView": 21,
      "componentType": 5126,
      "count": 78,
      "type": "VEC3"
    },
    {
      "bufferView": 22,
      "componentType": 5126,
      "count": 78,
      "type": "VEC2"
    },
    {
      "bufferView": 23,
      "componentType": 5123,
      "count": 216,
      "type": "SCALAR"
    },
    {
      "bufferView": 24,
      "componentType": 5126,
      "count": 312,
      "max": [
        -0.07715684175491333,
        0.959338903427124,
        1
      ],
      "min": [
        -0.3847798705101013,
        -1.0259547233581543,
        -1
      ],
      "type": "VEC3"
    },
    {
      "bufferView": 25,
      "componentType": 5126,
      "count": 312,
      "type": "VEC3"
    },
    {
      "bufferView": 26,
      "componentType": 5126,
      "count": 312,
      "type": "VEC2"
    },
    {
      "bufferView": 27,
      "componentType": 5123,
      "count": 468,
      "type": "SCALAR"
    },
    {
      "bufferView": 28,
      "componentType": 5126,
      "count": 4,
      "max": [
        0.9190073013305664,
        0.4563055634498596,
        -0.216768279671669
      ],
      "min": [
        0.9190073013305664,
        -0.6081357598304749,
        -0.714083731174469
      ],
      "type": "VEC3"
    },
    {
      "bufferView": 29,
      "componentType": 5126,
      "count": 4,
      "type": "VEC3"
    },
    {
      "bufferView": 30,
      "componentType": 5126,
      "count": 4,
      "type": "VEC2"
    },
    {
      "bufferView": 31,
      "componentType": 5123,
      "count": 6,
      "type": "SCALAR"
    },
    {
      "bufferView": 32,
      "componentType": 5126,
      "count": 690,
      "max": [
        1,
        -0.4561969041824341,
        1
      ],
      "min": [
        -1,
        -0.7122857570648193,
        -1
      ],
      "type": "VEC3"
    },
    {
      "bufferView": 33,
      "componentType": 5126,
      "count": 690,
      "type": "VEC3"
    },
    {
      "bufferView": 34,
      "componentType": 5126,
      "count": 690,
      "type": "VEC2"
    },
    {
      "bufferView": 35,
      "componentType": 5123,
      "count": 3162,
      "type": "SCALAR"
    },
    {
      "bufferView": 36,
      "componentType": 5126,
      "count": 900,
      "max": [
        0.6322767734527588,
        -0.4245304465293884,
        0.6322767734527588
      ],
      "min": [
        -0.6322767734527588,
        -0.6344233155250549,
        -0.6322767734527588
      ],
      "type": "VEC3"
    },
    {
      "bufferView": 37,
      "componentType": 5126,
      "count": 900,
      "type": "VEC3"
    },
    {
      "bufferView": 38,
      "componentType": 5126,
      "count": 900,
      "type": "VEC2"
    },
    {
      "bufferView": 39,
      "componentType": 5123,
      "count": 5364,
      "type": "SCALAR"
    },
    {
      "bufferView": 40,
      "componentType": 5126,
      "count": 2048,
      "max": [
        0.29214805364608765,
        2.4369397163391113,
        0.14363381266593933
      ],
      "min": [
        -2.3942031860351562,
        -32.300804138183594,
        -2.5427167415618896
      ],
      "type": "VEC3"
    },
    {
      "bufferView": 41,
      "componentType": 5126,
      "count": 2048,
      "type": "VEC3"
    },
    {
      "bufferView": 42,
      "componentType": 5126,
      "count": 2048,
      "type": "VEC2"
    },
    {
      "bufferView": 43,
      "componentType": 5123,
      "count": 12264,
      "type": "SCALAR"
    },
    {
      "bufferView": 44,
      "componentType": 5126,
      "count": 28160,
      "max": [
        0.9369904398918152,
        0.41812440752983093,
        0.9095931649208069
      ],
      "min": [
        -46.992286682128906,
        -1.432228446006775,
        -73.49385070800781
      ],
      "type": "VEC3"
    },
    {
      "bufferView": 45,
      "componentType": 5126,
      "count": 28160,
      "type": "VEC3"
    },
    {
      "bufferView": 46,
      "componentType": 5126,
      "count": 28160,
      "type": "VEC2"
    },
    {
      "bufferView": 47,
      "componentType": 5123,
      "count": 42912,
      "type": "SCALAR"
    },
    {
      "bufferView": 48,
      "componentType": 5126,
      "count": 452,
      "max": [
        0.772266685962677,
        1.3502068519592285,
        0.623752236366272
      ],
      "min": [
        -2.8743207454681396,
        -31.214073181152344,
        -3.0228354930877686
      ],
      "type": "VEC3"
    },
    {
      "bufferView": 49,
      "componentType": 5126,
      "count": 452,
      "type": "VEC3"
    },
    {
      "bufferView": 50,
      "componentType": 5126,
      "count": 452,
      "type": "VEC2"
    },
    {
      "bufferView": 51,
      "componentType": 5123,
      "count": 1512,
      "type": "SCALAR"
    },
    {
      "bufferView": 52,
      "componentType": 5126,
      "count": 1237,
      "max": [
        1.1082247495651245,
        3.876218795776367,
        1.108224868774414
      ],
      "min": [
        -1.296929955482483,
        0,
        -1.108224630355835
      ],
      "type": "VEC3"
    },
    {
      "bufferView": 53,
      "componentType": 5126,
      "count": 1237,
      "type": "VEC3"
    },
    {
      "bufferView": 54,
      "componentType": 5126,
      "count": 1237,
      "type": "VEC2"
    },
    {
      "bufferView": 55,
      "componentType": 5123,
      "count": 7050,
      "type": "SCALAR"
    },
    {
      "bufferView": 56,
      "componentType": 5126,
      "count": 932,
      "max": [
        11.070374488830566,
        2.842595100402832,
        2.6003665924072266
      ],
      "min": [
        -3.5684967041015625,
        -28.509063720703125,
        -17.92898941040039
      ],
      "type": "VEC3"
    },
    {
      "bufferView": 57,
      "componentType": 5126,
      "count": 932,
      "type": "VEC3"
    },
    {
      "bufferView": 58,
      "componentType": 5126,
      "count": 932,
      "type": "VEC2"
    },
    {
      "bufferView": 59,
      "componentType": 5123,
      "count": 4368,
      "type": "SCALAR"
    },
    {
      "bufferView": 60,
      "componentType": 5126,
      "count": 130,
      "max": [
        0.8199267983436584,
        3.4163546562194824,
        0.9425476789474487
      ],
      "min": [
        -0.8199267983436584,
        -0.8199268579483032,
        -0.6973059177398682
      ],
      "type": "VEC3"
    },
    {
      "bufferView": 61,
      "componentType": 5126,
      "count": 130,
      "type": "VEC3"
    },
    {
      "bufferView": 62,
      "componentType": 5126,
      "count": 130,
      "type": "VEC2"
    },
    {
      "bufferView": 63,
      "componentType": 5123,
      "count": 372,
      "type": "SCALAR"
    },
    {
      "bufferView": 64,
      "componentType": 5126,
      "count": 280,
      "max": [
        0.8808006644248962,
        2.579522132873535,
        1.1388204097747803
      ],
      "min": [
        -0.8808006644248962,
        -0.37910816073417664,
        -0.758179783821106
      ],
      "type": "VEC3"
    },
    {
      "bufferView": 65,
      "componentType": 5126,
      "count": 280,
      "type": "VEC3"
    },
    {
      "bufferView": 66,
      "componentType": 5126,
      "count": 280,
      "type": "VEC2"
    },
    {
      "bufferView": 67,
      "componentType": 5123,
      "count": 1632,
      "type": "SCALAR"
    },
    {
      "bufferView": 68,
      "componentType": 5126,
      "count": 109,
      "max": [
        0.8632782101631165,
        4.556238651275635,
        0.9858990907669067
      ],
      "min": [
        -0.8632782697677612,
        3.4163544178009033,
        -0.7406573295593262
      ],
      "type": "VEC3"
    },
    {
      "bufferView": 69,
      "componentType": 5126,
      "count": 109,
      "type": "VEC3"
    },
    {
      "bufferView": 70,
      "componentType": 5126,
      "count": 109,
      "type": "VEC2"
    },
    {
      "bufferView": 71,
      "componentType": 5123,
      "count": 564,
      "type": "SCALAR"
    },
    {
      "bufferView": 72,
      "componentType": 5126,
      "count": 192,
      "max": [
        0.8816730380058289,
        3.9949862957000732,
        -0.7188029885292053
      ],
      "min": [
        0.8044251203536987,
        2.9935388565063477,
        -0.7960509061813354
      ],
      "type": "VEC3"
    },
    {
      "bufferView": 73,
      "componentType": 5126,
      "count": 192,
      "type": "VEC3"
    },
    {
      "bufferView": 74,
      "componentType": 5126,
      "count": 192,
      "type": "VEC2"
    },
    {
      "bufferView": 75,
      "componentType": 5123,
      "count": 372,
      "type": "SCALAR"
    },
    {
      "bufferView": 76,
      "componentType": 5126,
      "count": 98,
      "max": [
        1,
        0.6552559733390808,
        1
      ],
      "min": [
        -1,
        -0.6938827633857727,
        -1
      ],
      "type": "VEC3"
    },
    {
      "bufferView": 77,
      "componentType": 5126,
      "count": 98,
      "type": "VEC3"
    },
    {
      "bufferView": 78,
      "componentType": 5126,
      "count": 98,
      "type": "VEC2"
    },
    {
      "bufferView": 79,
      "componentType": 5123,
      "count": 282,
      "type": "SCALAR"
    },
    {
      "bufferView": 80,
      "componentType": 5126,
      "count": 706,
      "max": [
        0.5904574394226074,
        1.2779769897460938,
        0.5904574394226074
      ],
      "min": [
        -0.5904574394226074,
        0.6552559733390808,
        -0.5904574394226074
      ],
      "type": "VEC3"
    },
    {
      "bufferView": 81,
      "componentType": 5126,
      "count": 706,
      "type": "VEC3"
    },
    {
      "bufferView": 82,
      "componentType": 5126,
      "count": 706,
      "type": "VEC2"
    },
    {
      "bufferView": 83,
      "componentType": 5123,
      "count": 2586,
      "type": "SCALAR"
    },
    {
      "bufferView": 84,
      "componentType": 5126,
      "count": 640,
      "max": [
        9.555241584777832,
        2.309889316558838,
        -12.873955726623535
      ],
      "min": [
        5.01668643951416,
        -28.085710525512695,
        -19.303255081176758
      ],
      "type": "VEC3"
    },
    {
      "bufferView": 85,
      "componentType": 5126,
      "count": 640,
      "type": "VEC3"
    },
    {
      "bufferView": 86,
      "componentType": 5126,
      "count": 640,
      "type": "VEC2"
    },
    {
      "bufferView": 87,
      "componentType": 5123,
      "count": 3816,
      "type": "SCALAR"
    },
    {
      "bufferView": 88,
      "componentType": 5126,
      "count": 156,
      "max": [
        -0.0969693511724472,
        2.686772346496582,
        4.388513565063477
      ],
      "min": [
        -10.544110298156738,
        -28.04692840576172,
        -15.413834571838379
      ],
      "type": "VEC3"
    },
    {
      "bufferView": 89,
      "componentType": 5126,
      "count": 156,
      "type": "VEC3"
    },
    {
      "bufferView": 90,
      "componentType": 5126,
      "count": 156,
      "type": "VEC2"
    },
    {
      "bufferView": 91,
      "componentType": 5123,
      "count": 774,
      "type": "SCALAR"
    },
    {
      "bufferView": 92,
      "componentType": 5126,
      "count": 1063,
      "max": [
        0.9357468485832214,
        6.504344463348389,
        0.917978048324585
      ],
      "min": [
        -0.9357465505599976,
        6.049671173095703,
        -0.9506434202194214
      ],
      "type": "VEC3"
    },
    {
      "bufferView": 93,
      "componentType": 5126,
      "count": 1063,
      "type": "VEC3"
    },
    {
      "bufferView": 94,
      "componentType": 5126,
      "count": 1063,
      "type": "VEC2"
    },
    {
      "bufferView": 95,
      "componentType": 5123,
      "count": 6042,
      "type": "SCALAR"
    },
    {
      "bufferView": 96,
      "componentType": 5126,
      "count": 50,
      "max": [
        -1.2183005809783936,
        2.3846914768218994,
        3.775754451751709
      ],
      "min": [
        -10.066490173339844,
        -27.712139129638672,
        -14.472707748413086
      ],
      "type": "VEC3"
    },
    {
      "bufferView": 97,
      "componentType": 5126,
      "count": 50,
      "type": "VEC3"
    },
    {
      "bufferView": 98,
      "componentType": 5126,
      "count": 50,
      "type": "VEC2"
    },
    {
      "bufferView": 99,
      "componentType": 5123,
      "count": 96,
      "type": "SCALAR"
    },
    {
      "bufferView": 100,
      "componentType": 5126,
      "count": 128,
      "max": [
        -2.6314828395843506,
        1.7044316530227661,
        -6.105011940002441
      ],
      "min": [
        -9.832653999328613,
        -27.30326271057129,
        -18.263519287109375
      ],
      "type": "VEC3"
    },
    {
      "bufferView": 101,
      "componentType": 5126,
      "count": 128,
      "type": "VEC3"
    },
    {
      "bufferView": 102,
      "componentType": 5126,
      "count": 128,
      "type": "VEC2"
    },
    {
      "bufferView": 103,
      "componentType": 5123,
      "count": 732,
      "type": "SCALAR"
    },
    {
      "bufferView": 104,
      "componentType": 5126,
      "count": 772,
      "max": [
        -6.925519943237305,
        1.9703521728515625,
        -14.338240623474121
      ],
      "min": [
        -8.24293041229248,
        -27.741729736328125,
        -17.506502151489258
      ],
      "type": "VEC3"
    },
    {
      "bufferView": 105,
      "componentType": 5126,
      "count": 772,
      "type": "VEC3"
    },
    {
      "bufferView": 106,
      "componentType": 5126,
      "count": 772,
      "type": "VEC2"
    },
    {
      "bufferView": 107,
      "componentType": 5123,
      "count": 3816,
      "type": "SCALAR"
    },
    {
      "bufferView": 108,
      "componentType": 5126,
      "count": 196,
      "max": [
        -4.5131425857543945,
        0.7226822376251221,
        -14.256677627563477
      ],
      "min": [
        -9.171656608581543,
        -26.49850082397461,
        -17.9205322265625
      ],
      "type": "VEC3"
    },
    {
      "bufferView": 109,
      "componentType": 5126,
      "count": 196,
      "type": "VEC3"
    },
    {
      "bufferView": 110,
      "componentType": 5126,
      "count": 196,
      "type": "VEC2"
    },
    {
      "bufferView": 111,
      "componentType": 5123,
      "count": 564,
      "type": "SCALAR"
    },
    {
      "bufferView": 112,
      "componentType": 5126,
      "count": 890,
      "max": [
        6.158543586730957,
        1.5567829608917236,
        -13.446142196655273
      ],
      "min": [
        -4.51314640045166,
        -27.332603454589844,
        -18.731069564819336
      ],
      "type": "VEC3"
    },
    {
      "bufferView": 113,
      "componentType": 5126,
      "count": 890,
      "type": "VEC3"
    },
    {
      "bufferView": 114,
      "componentType": 5126,
      "count": 890,
      "type": "VEC2"
    },
    {
      "bufferView": 115,
      "componentType": 5123,
      "count": 4896,
      "type": "SCALAR"
    },
    {
      "bufferView": 116,
      "componentType": 5126,
      "count": 32,
      "max": [
        1.702409029006958,
        1.1856154203414917,
        -13.761506080627441
      ],
      "min": [
        -1.5945942401885986,
        -26.999019622802734,
        -17.259525299072266
      ],
      "type": "VEC3"
    },
    {
      "bufferView": 117,
      "componentType": 5126,
      "count": 32,
      "type": "VEC3"
    },
    {
      "bufferView": 118,
      "componentType": 5126,
      "count": 32,
      "type": "VEC2"
    },
    {
      "bufferView": 119,
      "componentType": 5123,
      "count": 84,
      "type": "SCALAR"
    },
    {
      "bufferView": 120,
      "componentType": 5126,
      "count": 128,
      "max": [
        11.055129051208496,
        2.856511116027832,
        -8.25943660736084
      ],
      "min": [
        10.560349464416504,
        -27.89398956298828,
        -12.876859664916992
      ],
      "type": "VEC3"
    },
    {
      "bufferView": 121,
      "componentType": 5126,
      "count": 128,
      "type": "VEC3"
    },
    {
      "bufferView": 122,
      "componentType": 5126,
      "count": 128,
      "type": "VEC2"
    },
    {
      "bufferView": 123,
      "componentType": 5123,
      "count": 648,
      "type": "SCALAR"
    },
    {
      "bufferView": 124,
      "componentType": 5126,
      "count": 1984,
      "max": [
        0.9999997019767761,
        1,
        0.9999993443489075
      ],
      "min": [
        -0.9999990463256836,
        -1,
        -1
      ],
      "type": "VEC3"
    },
    {
      "bufferView": 125,
      "componentType": 5126,
      "count": 1984,
      "type": "VEC3"
    },
    {
      "bufferView": 126,
      "componentType": 5126,
      "count": 1984,
      "type": "VEC2"
    },
    {
      "bufferView": 127,
      "componentType": 5123,
      "count": 2880,
      "type": "SCALAR"
    }
  ],
  "bufferViews": [
    {
      "buffer": 0,
      "byteLength": 11736,
      "byteOffset": 0,
      "target": 34962
    },
    {
      "buffer": 0,
      "byteLength": 11736,
      "byteOffset": 11736,
      "target": 34962
    },
    {
      "buffer": 0,
      "byteLength": 7824,
      "byteOffset": 23472,
      "target": 34962
    },
    {
      "buffer": 0,
      "byteLength": 3708,
      "byteOffset": 31296,
      "target": 34963
    },
    {
      "buffer": 0,
      "byteLength": 7488,
      "byteOffset": 35004,
      "target": 34962
    },
    {
      "buffer": 0,
      "byteLength": 7488,
      "byteOffset": 42492,
      "target": 34962
    },
    {
      "buffer": 0,
      "byteLength": 4992,
      "byteOffset": 49980,
      "target": 34962
    },
    {
      "buffer": 0,
      "byteLength": 2412,
      "byteOffset": 54972,
      "target": 34963
    },
    {
      "buffer": 0,
      "byteLength": 7680,
      "byteOffset": 57384,
      "target": 34962
    },
    {
      "buffer": 0,
      "byteLength": 7680,
      "byteOffset": 65064,
      "target": 34962
    },
    {
      "buffer": 0,
      "byteLength": 5120,
      "byteOffset": 72744,
      "target": 34962
    },
    {
      "buffer": 0,
      "byteLength": 2508,
      "byteOffset": 77864,
      "target": 34963
    },
    {
      "buffer": 0,
      "byteLength": 672,
      "byteOffset": 80372,
      "target": 34962
    },
    {
      "buffer": 0,
      "byteLength": 672,
      "byteOffset": 81044,
      "target": 34962
    },
    {
      "buffer": 0,
      "byteLength": 448,
      "byteOffset": 81716,
      "target": 34962
    },
    {
      "buffer": 0,
      "byteLength": 216,
      "byteOffset": 82164,
      "target": 34963
    },
    {
      "buffer": 0,
      "byteLength": 7584,
      "byteOffset": 82380,
      "target": 34962
    },
    {
      "buffer": 0,
      "byteLength": 7584,
      "byteOffset": 89964,
      "target": 34962
    },
    {
      "buffer": 0,
      "byteLength": 5056,
      "byteOffset": 97548,
      "target": 34962
    },
    {
      "buffer": 0,
      "byteLength": 2592,
      "byteOffset": 102604,
      "target": 34963
    },
    {
      "buffer": 0,
      "byteLength": 936,
      "byteOffset": 105196,
      "target": 34962
    },
    {
      "buffer": 0,
      "byteLength": 936,
      "byteOffset": 106132,
      "target": 34962
    },
    {
      "buffer": 0,
      "byteLength": 624,
      "byteOffset": 107068,
      "target": 34962
    },
    {
      "buffer": 0,
      "byteLength": 432,
      "byteOffset": 107692,
      "target": 34963
    },
    {
      "buffer": 0,
      "byteLength": 3744,
      "byteOffset": 108124,
      "target": 34962
    },
    {
      "buffer": 0,
      "byteLength": 3744,
      "byteOffset": 111868,
      "target": 34962
    },
    {
      "buffer": 0,
      "byteLength": 2496,
      "byteOffset": 115612,
      "target": 34962
    },
    {
      "buffer": 0,
      "byteLength": 936,
      "byteOffset": 118108,
      "target": 34963
    },
    {
      "buffer": 0,
      "byteLength": 48,
      "byteOffset": 119044,
      "target": 34962
    },
    {
      "buffer": 0,
      "byteLength": 48,
      "byteOffset": 119092,
      "target": 34962
    },
    {
      "buffer": 0,
      "byteLength": 32,
      "byteOffset": 119140,
      "target": 34962
    },
    {
      "buffer": 0,
      "byteLength": 12,
      "byteOffset": 119172,
      "target": 34963
    },
    {
      "buffer": 0,
      "byteLength": 8280,
      "byteOffset": 119184,
      "target": 34962
    },
    {
      "buffer": 0,
      "byteLength": 8280,
      "byteOffset": 127464,
      "target": 34962
    },
    {
      "buffer": 0,
      "byteLength": 5520,
      "byteOffset": 135744,
      "target": 34962
    },
    {
      "buffer": 0,
      "byteLength": 6324,
      "byteOffset": 141264,
      "target": 34963
    },
    {
      "buffer": 0,
      "byteLength": 10800,
      "byteOffset": 147588,
      "target": 34962
    },
    {
      "buffer": 0,
      "byteLength": 10800,
      "byteOffset": 158388,
      "target": 34962
    },
    {
      "buffer": 0,
      "byteLength": 7200,
      "byteOffset": 169188,
      "target": 34962
    },
    {
      "buffer": 0,
      "byteLength": 10728,
      "byteOffset": 176388,
      "target": 34963
    },
    {
      "buffer": 0,
      "byteLength": 24576,
      "byteOffset": 187116,
      "target": 34962
    },
    {
      "buffer": 0,
      "byteLength": 24576,
      "byteOffset": 211692,
      "target": 34962
    },
    {
      "buffer": 0,
      "byteLength": 16384,
      "byteOffset": 236268,
      "target": 34962
    },
    {
      "buffer": 0,
      "byteLength": 24528,
      "byteOffset": 252652,
      "target": 34963
    },
    {
      "buffer": 0,
      "byteLength": 337920,
      "byteOffset": 277180,
      "target": 34962
    },
    {
      "buffer": 0,
      "byteLength": 337920,
      "byteOffset": 615100,
      "target": 34962
    },
    {
      "buffer": 0,
      "byteLength": 225280,
      "byteOffset": 953020,
      "target": 34962
    },
    {
      "buffer": 0,
      "byteLength": 85824,
      "byteOffset": 1178300,
      "target": 34963
    },
    {
      "buffer": 0,
      "byteLength": 5424,
      "byteOffset": 1264124,
      "target": 34962
    },
    {
      "buffer": 0,
      "byteLength": 5424,
      "byteOffset": 1269548,
      "target": 34962
    },
    {
      "buffer": 0,
      "byteLength": 3616,
      "byteOffset": 1274972,
      "target": 34962
    },
    {
      "buffer": 0,
      "byteLength": 3024,
      "byteOffset": 1278588,
      "target": 34963
    },
    {
      "buffer": 0,
      "byteLength": 14844,
      "byteOffset": 1281612,
      "target": 34962
    },
    {
      "buffer": 0,
      "byteLength": 14844,
      "byteOffset": 1296456,
      "target": 34962
    },
    {
      "buffer": 0,
      "byteLength": 9896,
      "byteOffset": 1311300,
      "target": 34962
    },
    {
      "buffer": 0,
      "byteLength": 14100,
      "byteOffset": 1321196,
      "target": 34963
    },
    {
      "buffer": 0,
      "byteLength": 11184,
      "byteOffset": 1335296,
      "target": 34962
    },
    {
      "buffer": 0,
      "byteLength": 11184,
      "byteOffset": 1346480,
      "target": 34962
    },
    {
      "buffer": 0,
      "byteLength": 7456,
      "byteOffset": 1357664,
      "target": 34962
    },
    {
      "buffer": 0,
      "byteLength": 8736,
      "byteOffset": 1365120,
      "target": 34963
    },
    {
      "buffer": 0,
      "byteLength": 1560,
      "byteOffset": 1373856,
      "target": 34962
    },
    {
      "buffer": 0,
      "byteLength": 1560,
      "byteOffset": 1375416,
      "target": 34962
    },
    {
      "buffer": 0,
      "byteLength": 1040,
      "byteOffset": 1376976,
      "target": 34962
    },
    {
      "buffer": 0,
      "byteLength": 744,
      "byteOffset": 1378016,
      "target": 34963
    },
    {
      "buffer": 0,
      "byteLength": 3360,
      "byteOffset": 1378760,
      "target": 34962
    },
    {
      "buffer": 0,
      "byteLength": 3360,
      "byteOffset": 1382120,
      "target": 34962
    },
    {
      "buffer": 0,
      "byteLength": 2240,
      "byteOffset": 1385480,
      "target": 34962
    },
    {
      "buffer": 0,
      "byteLength": 3264,
      "byteOffset": 1387720,
      "target": 34963
    },
    {
      "buffer": 0,
      "byteLength": 1308,
      "byteOffset": 1390984,
      "target": 34962
    },
    {
      "buffer": 0,
      "byteLength": 1308,
      "byteOffset": 1392292,
      "target": 34962
    },
    {
      "buffer": 0,
      "byteLength": 872,
      "byteOffset": 1393600,
      "target": 34962
    },
    {
      "buffer": 0,
      "byteLength": 1128,
      "byteOffset": 1394472,
      "target": 34963
    },
    {
      "buffer": 0,
      "byteLength": 2304,
      "byteOffset": 1395600,
      "target": 34962
    },
    {
      "buffer": 0,
      "byteLength": 2304,
      "byteOffset": 1397904,
      "target": 34962
    },
    {
      "buffer": 0,
      "byteLength": 1536,
      "byteOffset": 1400208,
      "target": 34962
    },
    {
      "buffer": 0,
      "byteLength": 744,
      "byteOffset": 1401744,
      "target": 34963
    },
    {
      "buffer": 0,
      "byteLength": 1176,
      "byteOffset": 1402488,
      "target": 34962
    },
    {
      "buffer": 0,
      "byteLength": 1176,
      "byteOffset": 1403664,
      "target": 34962
    },
    {
      "buffer": 0,
      "byteLength": 784,
      "byteOffset": 1404840,
      "target": 34962
    },
    {
      "buffer": 0,
      "byteLength": 564,
      "byteOffset": 1405624,
      "target": 34963
    },
    {
      "buffer": 0,
      "byteLength": 8472,
      "byteOffset": 1406188,
      "target": 34962
    },
    {
      "buffer": 0,
      "byteLength": 8472,
      "byteOffset": 1414660,
      "target": 34962
    },
    {
      "buffer": 0,
      "byteLength": 5648,
      "byteOffset": 1423132,
      "target": 34962
    },
    {
      "buffer": 0,
      "byteLength": 5172,
      "byteOffset": 1428780,
      "target": 34963
    },
    {
      "buffer": 0,
      "byteLength": 7680,
      "byteOffset": 1433952,
      "target": 34962
    },
    {
      "buffer": 0,
      "byteLength": 7680,
      "byteOffset": 1441632,
      "target": 34962
    },
    {
      "buffer": 0,
      "byteLength": 5120,
      "byteOffset": 1449312,
      "target": 34962
    },
    {
      "buffer": 0,
      "byteLength": 7632,
      "byteOffset": 1454432,
      "target": 34963
    },
    {
      "buffer": 0,
      "byteLength": 1872,
      "byteOffset": 1462064,
      "target": 34962
    },
    {
      "buffer": 0,
      "byteLength": 1872,
      "byteOffset": 1463936,
      "target": 34962
    },
    {
      "buffer": 0,
      "byteLength": 1248,
      "byteOffset": 1465808,
      "target": 34962
    },
    {
      "buffer": 0,
      "byteLength": 1548,
      "byteOffset": 1467056,
      "target": 34963
    },
    {
      "buffer": 0,
      "byteLength": 12756,
      "byteOffset": 1468604,
      "target": 34962
    },
    {
      "buffer": 0,
      "byteLength": 12756,
      "byteOffset": 1481360,
      "target": 34962
    },
    {
      "buffer": 0,
      "byteLength": 8504,
      "byteOffset": 1494116,
      "target": 34962
    },
    {
      "buffer": 0,
      "byteLength": 12084,
      "byteOffset": 1502620,
      "target": 34963
    },
    {
      "buffer": 0,
      "byteLength": 600,
      "byteOffset": 1514704,
      "target": 34962
    },
    {
      "buffer": 0,
      "byteLength": 600,
      "byteOffset": 1515304,
      "target": 34962
    },
    {
      "buffer": 0,
      "byteLength": 400,
      "byteOffset": 1515904,
      "target": 34962
    },
    {
      "buffer": 0,
      "byteLength": 192,
      "byteOffset": 1516304,
      "target": 34963
    },
    {
      "buffer": 0,
      "byteLength": 1536,
      "byteOffset": 1516496,
      "target": 34962
    },
    {
      "buffer": 0,
      "byteLength": 1536,
      "byteOffset": 1518032,
      "target": 34962
    },
    {
      "buffer": 0,
      "byteLength": 1024,
      "byteOffset": 1519568,
      "target": 34962
    },
    {
      "buffer": 0,
      "byteLength": 1464,
      "byteOffset": 1520592,
      "target": 34963
    },
    {
      "buffer": 0,
      "byteLength": 9264,
      "byteOffset": 1522056,
      "target": 34962
    },
    {
      "buffer": 0,
      "byteLength": 9264,
      "byteOffset": 1531320,
      "target": 34962
    },
    {
      "buffer": 0,
      "byteLength": 6176,
      "byteOffset": 1540584,
      "target": 34962
    },
    {
      "buffer": 0,
      "byteLength": 7632,
      "byteOffset": 1546760,
      "target": 34963
    },
    {
      "buffer": 0,
      "byteLength": 2352,
      "byteOffset": 1554392,
      "target": 34962
    },
    {
      "buffer": 0,
      "byteLength": 2352,
      "byteOffset": 1556744,
      "target": 34962
    },
    {
      "buffer": 0,
      "byteLength": 1568,
      "byteOffset": 1559096,
      "target": 34962
    },
    {
      "buffer": 0,
      "byteLength": 1128,
      "byteOffset": 1560664,
      "target": 34963
    },
    {
      "buffer": 0,
      "byteLength": 10680,
      "byteOffset": 1561792,
      "target": 34962
    },
    {
      "buffer": 0,
      "byteLength": 10680,
      "byteOffset": 1572472,
      "target": 34962
    },
    {
      "buffer": 0,
      "byteLength": 7120,
      "byteOffset": 1583152,
      "target": 34962
    },
    {
      "buffer": 0,
      "byteLength": 9792,
      "byteOffset": 1590272,
      "target": 34963
    },
    {
      "buffer": 0,
      "byteLength": 384,
      "byteOffset": 1600064,
      "target": 34962
    },
    {
      "buffer": 0,
      "byteLength": 384,
      "byteOffset": 1600448,
      "target": 34962
    },
    {
      "buffer": 0,
      "byteLength": 256,
      "byteOffset": 1600832,
      "target": 34962
    },
    {
      "buffer": 0,
      "byteLength": 168,
      "byteOffset": 1601088,
      "target": 34963
    },
    {
      "buffer": 0,
      "byteLength": 1536,
      "byteOffset": 1601256,
      "target": 34962
    },
    {
      "buffer": 0,
      "byteLength": 1536,
      "byteOffset": 1602792,
      "target": 34962
    },
    {
      "buffer": 0,
      "byteLength": 1024,
      "byteOffset": 1604328,
      "target": 34962
    },
    {
      "buffer": 0,
      "byteLength": 1296,
      "byteOffset": 1605352,
      "target": 34963
    },
    {
      "buffer": 0,
      "byteLength": 23808,
      "byteOffset": 1606648,
      "target": 34962
    },
    {
      "buffer": 0,
      "byteLength": 23808,
      "byteOffset": 1630456,
      "target": 34962
    },
    {
      "buffer": 0,
      "byteLength": 15872,
      "byteOffset": 1654264,
      "target": 34962
    },
    {
      "buffer": 0,
      "byteLength": 5760,
      "byteOffset": 1670136,
      "target": 34963
    }
  ],
  "buffers": [
    {
      "byteLength": 1675896,
      "uri": "scene.bin"
    }
  ]
}