{
  "accessors": [
    {
      "bufferView": 3,
      "componentType": 5126,
      "count": 8043,
      "max": [
        1.0316799879074097,
        1.1403800249099731,
        2.274169921875
      ],
      "min": [
        -1.0322200059890747,
        -1.4865400791168213,
        -4.816050052642822
      ],
      "type": "VEC3"
    },
    {
      "bufferView": 3,
      "byteOffset": 96516,
      "componentType": 5126,
      "count": 8043,
      "max": [
        0.9996833801269531,
        0.9991864562034607,
        0.9995468854904175
      ],
      "min": [
        -0.9999727606773376,
        -0.9999239444732666,
        -0.9980549812316895
      ],
      "type": "VEC3"
    },
    {
      "bufferView": 2,
      "componentType": 5126,
      "count": 8043,
      "max": [
        1.0,
        1.0
      ],
      "min": [
        0.0,
        0.0
      ],
      "type": "VEC2"
    },
    {
      "bufferView": 1,
      "componentType": 5125,
      "count": 35652,
      "type": "SCALAR"
    },
    {
      "bufferView": 3,
      "byteOffset": 193032,
      "componentType": 5126,
      "count": 1984,
      "max": [
        0.884440004825592,
        -0.09108997881412506,
        1.9687000513076782
      ],
      "min": [
        -0.884440004825592,
        -1.859969973564148,
        0.19982002675533295
      ],
      "type": "VEC3"
    },
    {
      "bufferView": 3,
      "byteOffset": 216840,
      "componentType": 5126,
      "count": 1984,
      "max": [
        0.9904382824897766,
        0.9951387643814087,
        0.9904382824897766
      ],
      "min": [
        -0.9904382824897766,
        -0.9951387643814087,
        -0.9904382824897766
      ],
      "type": "VEC3"
    },
    {
      "bufferView": 2,
      "byteOffset": 64344,
      "componentType": 5126,
      "count": 1984,
      "max": [
        1.0,
        1.0
      ],
      "min": [
        0.0,
        0.0
      ],
      "type": "VEC2"
    },
    {
      "bufferView": 1,
      "byteOffset": 142608,
      "componentType": 5125,
      "count": 2880,
      "type": "SCALAR"
    },
    {
      "bufferView": 5,
      "componentType": 5126,
      "count": 12,
      "max": [
        1.0,
        0.0,
        0.0004900000058114529,
        0.0,
        7.000000186963007e-05,
        1.0,
        0.9997299909591675,
        0.0,
        0.006769999861717224,
        1.0,
        1.0,
        0.0,
        0.0014700000174343586,
        1.2311500310897827,
        1.7206499576568604,
        1.0
      ],
      "min": [
        0.9999799728393555,
        -0.006730000022798777,
        -0.0007300000288523734,
        0.0,
        0.0,
        -1.0,
        -1.0,
        0.0,
        0.0,
        -0.9993900060653687,
        -1.0,
        0.0,
        -0.008779999800026417,
        -4.0478901863098145,
        -1.7667800188064575,
        1.0
      ],
      "type": "MAT4"
    },
    {
      "bufferView": 0,
      "componentType": 5123,
      "count": 8043,
      "type": "VEC4"
    },
    {
      "bufferView": 4,
      "componentType": 5126,
      "count": 8043,
      "max": [
        1.0,
        0.5,
        0.18424393236637115,
        0.0
      ],
      "min": [
        0.5,
        0.0,
        0.0,
        0.0
      ],
      "type": "VEC4"
    },
    {
      "bufferView": 0,
      "byteOffset": 64344,
      "componentType": 5123,
      "count": 1984,
      "type": "VEC4"
    },
    {
      "bufferView": 4,
      "byteOffset": 128688,
      "componentType": 5126,
      "count": 1984,
      "max": [
        1.0,
        0.0,
        0.0,
        0.0
      ],
      "min": [
        1.0,
        0.0,
        0.0,
        0.0
      ],
      "type": "VEC4"
    },
    {
      "bufferView": 6,
      "componentType": 5126,
      "count": 1,
      "max": [
        0.016669999808073044
      ],
      "min": [
        0.016669999808073044
      ],
      "type": "SCALAR"
    },
    {
      "bufferView": 7,
      "componentType": 5126,
      "count": 1,
      "max": [
        1.046489953994751,
        0.26190000772476196,
        1.730720043182373
      ],
      "min": [
        1.046489953994751,
        0.26190000772476196,
        1.730720043182373
      ],
      "type": "VEC3"
    },
    {
      "bufferView": 6,
      "byteOffset": 4,
      "componentType": 5126,
      "count": 1,
      "max": [
        0.016669999808073044
      ],
      "min": [
        0.016669999808073044
      ],
      "type": "SCALAR"
    },
    {
      "bufferView": 8,
      "componentType": 5126,
      "count": 1,
      "max": [
        0.7069631814956665,
        0.014248157851397991,
        -0.014248157851397991,
        0.7069631814956665
      ],
      "min": [
        0.7069631814956665,
        0.014248157851397991,
        -0.014248157851397991,
        0.7069631814956665
      ],
      "type": "VEC4"
    },
    {
      "bufferView": 6,
      "byteOffset": 8,
      "componentType": 5126,
      "count": 60,
      "max": [
        1.0
      ],
      "min": [
        0.016669999808073044
      ],
      "type": "SCALAR"
    },
    {
      "bufferView": 8,
      "byteOffset": 16,
      "componentType": 5126,
      "count": 60,
      "max": [
        0.9999963641166687,
        0.00021096272394061089,
        0.0032351084519177675,
        0.018999092280864716
      ],
      "min": [
        0.9979833960533142,
        -2.8747836040565744e-06,
        0.0,
        -0.06347518414258957
      ],
      "type": "VEC4"
    },
    {
      "bufferView": 6,
      "byteOffset": 248,
      "componentType": 5126,
      "count": 60,
      "max": [
        1.0
      ],
      "min": [
        0.016669999808073044
      ],
      "type": "SCALAR"
    },
    {
      "bufferView": 8,
      "byteOffset": 976,
      "componentType": 5126,
      "count": 60,
      "max": [
        0.2807984948158264,
        -0.006028997246176004,
        -0.018083803355693817,
        0.9848752617835999
      ],
      "min": [
        0.17213033139705658,
        -0.00813253689557314,
        -0.018856491893529892,
        0.9595620036125183
      ],
      "type": "VEC4"
    },
    {
      "bufferView": 6,
      "byteOffset": 488,
      "componentType": 5126,
      "count": 1,
      "max": [
        0.016669999808073044
      ],
      "min": [
        0.016669999808073044
      ],
      "type": "SCALAR"
    },
    {
      "bufferView": 8,
      "byteOffset": 1936,
      "componentType": 5126,
      "count": 1,
      "max": [
        0.1636568158864975,
        0.00037935227737762034,
        -0.004300539847463369,
        0.9865078330039978
      ],
      "min": [
        0.1636568158864975,
        0.00037935227737762034,
        -0.004300539847463369,
        0.9865078330039978
      ],
      "type": "VEC4"
    },
    {
      "bufferView": 6,
      "byteOffset": 492,
      "componentType": 5126,
      "count": 60,
      "max": [
        1.0
      ],
      "min": [
        0.016669999808073044
      ],
      "type": "SCALAR"
    },
    {
      "bufferView": 8,
      "byteOffset": 1952,
      "componentType": 5126,
      "count": 60,
      "max": [
        0.5224606990814209,
        0.008069646544754505,
        -0.006956212688237429,
        0.9506698846817017
      ],
      "min": [
        0.31007570028305054,
        0.004734687972813845,
        -0.007568800821900368,
        0.8525967597961426
      ],
      "type": "VEC4"
    },
    {
      "bufferView": 6,
      "byteOffset": 732,
      "componentType": 5126,
      "count": 60,
      "max": [
        1.0
      ],
      "min": [
        0.016669999808073044
      ],
      "type": "SCALAR"
    },
    {
      "bufferView": 8,
      "byteOffset": 2912,
      "componentType": 5126,
      "count": 60,
      "max": [
        0.3035557270050049,
        0.0025646283756941557,
        0.016058247536420822,
        0.9998313784599304
      ],
      "min": [
        -0.32046839594841003,
        -0.0020746784284710884,
        0.015236297622323036,
        0.9471328854560852
      ],
      "type": "VEC4"
    },
    {
      "bufferView": 6,
      "byteOffset": 972,
      "componentType": 5126,
      "count": 60,
      "max": [
        1.0
      ],
      "min": [
        0.016669999808073044
      ],
      "type": "SCALAR"
    },
    {
      "bufferView": 8,
      "byteOffset": 3872,
      "componentType": 5126,
      "count": 60,
      "max": [
        0.41953766345977783,
        0.005387152545154095,
        0.0025372952222824097,
        0.9999859929084778
      ],
      "min": [
        -0.46094757318496704,
        -0.004483141470700502,
        0.002196811605244875,
        0.8874082565307617
      ],
      "type": "VEC4"
    },
    {
      "bufferView": 6,
      "byteOffset": 1212,
      "componentType": 5126,
      "count": 60,
      "max": [
        1.0
      ],
      "min": [
        0.016669999808073044
      ],
      "type": "SCALAR"
    },
    {
      "bufferView": 8,
      "byteOffset": 4832,
      "componentType": 5126,
      "count": 60,
      "max": [
        0.7343027591705322,
        0.0012898189015686512,
        0.0001732411328703165,
        0.7072234153747559
      ],
      "min": [
        0.7069900631904602,
        0.0001732411328703165,
        -0.0009439709247089922,
        0.6788201928138733
      ],
      "type": "VEC4"
    },
    {
      "bufferView": 6,
      "byteOffset": 1452,
      "componentType": 5126,
      "count": 1,
      "max": [
        0.016669999808073044
      ],
      "min": [
        0.016669999808073044
      ],
      "type": "SCALAR"
    },
    {
      "bufferView": 7,
      "byteOffset": 12,
      "componentType": 5126,
      "count": 1,
      "max": [
        0.0015698448987677693,
        1.0840680599212646,
        1.649689793586731
      ],
      "min": [
        0.0015698448987677693,
        1.0840680599212646,
        1.649689793586731
      ],
      "type": "VEC3"
    },
    {
      "bufferView": 6,
      "byteOffset": 1456,
      "componentType": 5126,
      "count": 1,
      "max": [
        0.016669999808073044
      ],
      "min": [
        0.016669999808073044
      ],
      "type": "SCALAR"
    },
    {
      "bufferView": 8,
      "byteOffset": 5792,
      "componentType": 5126,
      "count": 1,
      "max": [
        -0.05103098973631859,
        -0.003790549235418439,
        -0.0002807322016451508,
        0.9986898899078369
      ],
      "min": [
        -0.05103098973631859,
        -0.003790549235418439,
        -0.0002807322016451508,
        0.9986898899078369
      ],
      "type": "VEC4"
    },
    {
      "bufferView": 6,
      "byteOffset": 1460,
      "componentType": 5126,
      "count": 1,
      "max": [
        0.016669999808073044
      ],
      "min": [
        0.016669999808073044
      ],
      "type": "SCALAR"
    },
    {
      "bufferView": 7,
      "byteOffset": 24,
      "componentType": 5126,
      "count": 1,
      "max": [
        1.046489953994751,
        0.26190000772476196,
        1.730720043182373
      ],
      "min": [
        1.046489953994751,
        0.26190000772476196,
        1.730720043182373
      ],
      "type": "VEC3"
    },
    {
      "bufferView": 6,
      "byteOffset": 1464,
      "componentType": 5126,
      "count": 178,
      "max": [
        2.966670036315918
      ],
      "min": [
        0.016669999808073044
      ],
      "type": "SCALAR"
    },
    {
      "bufferView": 8,
      "byteOffset": 5808,
      "componentType": 5126,
      "count": 178,
      "max": [
        0.7071067690849304,
        0.014248157851397991,
        0.005508525297045708,
        0.7071067690849304
      ],
      "min": [
        0.7069631814956665,
        -0.005508525297045708,
        -0.014248157851397991,
        0.7069631814956665
      ],
      "type": "VEC4"
    },
    {
      "bufferView": 6,
      "byteOffset": 2176,
      "componentType": 5126,
      "count": 1,
      "max": [
        0.016669999808073044
      ],
      "min": [
        0.016669999808073044
      ],
      "type": "SCALAR"
    },
    {
      "bufferView": 8,
      "byteOffset": 8656,
      "componentType": 5126,
      "count": 1,
      "max": [
        0.9979833960533142,
        0.0,
        0.0,
        -0.06347518414258957
      ],
      "min": [
        0.9979833960533142,
        0.0,
        0.0,
        -0.06347518414258957
      ],
      "type": "VEC4"
    },
    {
      "bufferView": 6,
      "byteOffset": 2180,
      "componentType": 5126,
      "count": 178,
      "max": [
        2.966670036315918
      ],
      "min": [
        0.016669999808073044
      ],
      "type": "SCALAR"
    },
    {
      "bufferView": 8,
      "byteOffset": 8672,
      "componentType": 5126,
      "count": 178,
      "max": [
        -0.06610974669456482,
        0.0022738995030522346,
        0.03731537237763405,
        0.9978078603744507
      ],
      "min": [
        -0.06617223471403122,
        -0.0029198878910392523,
        -0.048333194106817245,
        0.9966368079185486
      ],
      "type": "VEC4"
    },
    {
      "bufferView": 6,
      "byteOffset": 2892,
      "componentType": 5126,
      "count": 178,
      "max": [
        2.966670036315918
      ],
      "min": [
        0.016669999808073044
      ],
      "type": "SCALAR"
    },
    {
      "bufferView": 8,
      "byteOffset": 11520,
      "componentType": 5126,
      "count": 178,
      "max": [
        0.028598904609680176,
        0.000688346044626087,
        0.029694009572267532,
        0.9995909333229065
      ],
      "min": [
        0.028585784137248993,
        -0.0005327696562744677,
        -0.02344539947807789,
        0.9991499185562134
      ],
      "type": "VEC4"
    },
    {
      "bufferView": 6,
      "byteOffset": 3604,
      "componentType": 5126,
      "count": 178,
      "max": [
        2.966670036315918
      ],
      "min": [
        0.016669999808073044
      ],
      "type": "SCALAR"
    },
    {
      "bufferView": 8,
      "byteOffset": 14368,
      "componentType": 5126,
      "count": 178,
      "max": [
        -0.011378703638911247,
        0.004965060390532017,
        0.12305768579244614,
        0.9999327063560486
      ],
      "min": [
        -0.011476881802082062,
        -0.004117514006793499,
        -0.10214129835367203,
        0.9923217296600342
      ],
      "type": "VEC4"
    },
    {
      "bufferView": 6,
      "byteOffset": 4316,
      "componentType": 5126,
      "count": 178,
      "max": [
        2.966670036315918
      ],
      "min": [
        0.016669999808073044
      ],
      "type": "SCALAR"
    },
    {
      "bufferView": 8,
      "byteOffset": 17216,
      "componentType": 5126,
      "count": 178,
      "max": [
        -0.01570175401866436,
        0.0010457225143909454,
        0.0828307494521141,
        0.9998756051063538
      ],
      "min": [
        -0.015764959156513214,
        -0.0015033731469884515,
        -0.11526159942150116,
        0.993209958076477
      ],
      "type": "VEC4"
    },
    {
      "bufferView": 6,
      "byteOffset": 5028,
      "componentType": 5126,
      "count": 178,
      "max": [
        2.966670036315918
      ],
      "min": [
        0.016669999808073044
      ],
      "type": "SCALAR"
    },
    {
      "bufferView": 8,
      "byteOffset": 20064,
      "componentType": 5126,
      "count": 178,
      "max": [
        0.017830202355980873,
        0.0025160331279039383,
        0.1665133833885193,
        0.9998347163200378
      ],
      "min": [
        0.017636867240071297,
        -0.0023041032254695892,
        -0.155752494931221,
        0.9858766198158264
      ],
      "type": "VEC4"
    },
    {
      "bufferView": 6,
      "byteOffset": 5740,
      "componentType": 5126,
      "count": 111,
      "max": [
        2.966670036315918
      ],
      "min": [
        0.016669999808073044
      ],
      "type": "SCALAR"
    },
    {
      "bufferView": 8,
      "byteOffset": 22912,
      "componentType": 5126,
      "count": 111,
      "max": [
        0.7158180475234985,
        0.19799625873565674,
        0.2163883000612259,
        0.7072234749794006
      ],
      "min": [
        0.6817253232002258,
        -0.21612849831581116,
        -0.20608891546726227,
        0.6646165251731873
      ],
      "type": "VEC4"
    },
    {
      "bufferView": 6,
      "byteOffset": 6184,
      "componentType": 5126,
      "count": 1,
      "max": [
        0.016669999808073044
      ],
      "min": [
        0.016669999808073044
      ],
      "type": "SCALAR"
    },
    {
      "bufferView": 7,
      "byteOffset": 36,
      "componentType": 5126,
      "count": 1,
      "max": [
        0.0015698448987677693,
        1.0840680599212646,
        1.649689793586731
      ],
      "min": [
        0.0015698448987677693,
        1.0840680599212646,
        1.649689793586731
      ],
      "type": "VEC3"
    },
    {
      "bufferView": 6,
      "byteOffset": 6188,
      "componentType": 5126,
      "count": 60,
      "max": [
        2.966670036315918
      ],
      "min": [
        0.016669999808073044
      ],
      "type": "SCALAR"
    },
    {
      "bufferView": 8,
      "byteOffset": 24688,
      "componentType": 5126,
      "count": 60,
      "max": [
        0.39090976119041443,
        0.008419600315392017,
        -0.0002807322016451508,
        0.9999608993530273
      ],
      "min": [
        -0.05103098973631859,
        -0.0037934724241495132,
        -0.004356667399406433,
        0.9203930497169495
      ],
      "type": "VEC4"
    },
    {
      "bufferView": 6,
      "byteOffset": 6428,
      "componentType": 5126,
      "count": 60,
      "max": [
        2.966670036315918
      ],
      "min": [
        0.016669999808073044
      ],
      "type": "SCALAR"
    },
    {
      "bufferView": 8,
      "byteOffset": 25648,
      "componentType": 5126,
      "count": 60,
      "max": [
        0.9998480677604675,
        3.174261291860603e-05,
        0.009736048057675362,
        0.3848077952861786
      ],
      "min": [
        0.9229472875595093,
        -0.0034291381016373634,
        0.0,
        0.017430653795599937
      ],
      "type": "VEC4"
    },
    {
      "bufferView": 6,
      "byteOffset": 6668,
      "componentType": 5126,
      "count": 1,
      "max": [
        0.016669999808073044
      ],
      "min": [
        0.016669999808073044
      ],
      "type": "SCALAR"
    },
    {
      "bufferView": 7,
      "byteOffset": 48,
      "componentType": 5126,
      "count": 1,
      "max": [
        1.046489953994751,
        0.26190000772476196,
        1.730720043182373
      ],
      "min": [
        1.046489953994751,
        0.26190000772476196,
        1.730720043182373
      ],
      "type": "VEC3"
    },
    {
      "bufferView": 6,
      "byteOffset": 6672,
      "componentType": 5126,
      "count": 1,
      "max": [
        0.016669999808073044
      ],
      "min": [
        0.016669999808073044
      ],
      "type": "SCALAR"
    },
    {
      "bufferView": 8,
      "byteOffset": 26608,
      "componentType": 5126,
      "count": 1,
      "max": [
        0.7069631814956665,
        0.014248157851397991,
        -0.014248157851397991,
        0.7069631814956665
      ],
      "min": [
        0.7069631814956665,
        0.014248157851397991,
        -0.014248157851397991,
        0.7069631814956665
      ],
      "type": "VEC4"
    },
    {
      "bufferView": 6,
      "byteOffset": 6676,
      "componentType": 5126,
      "count": 60,
      "max": [
        1.0
      ],
      "min": [
        0.016669999808073044
      ],
      "type": "SCALAR"
    },
    {
      "bufferView": 8,
      "byteOffset": 26624,
      "componentType": 5126,
      "count": 60,
      "max": [
        0.9997392892837524,
        8.142837032210082e-05,
        0.0016288371989503503,
        -0.022776184603571892
      ],
      "min": [
        0.99006587266922,
        -0.0001947315176948905,
        -0.0030919117853045464,
        -0.1405700296163559
      ],
      "type": "VEC4"
    },
    {
      "bufferView": 6,
      "byteOffset": 6916,
      "componentType": 5126,
      "count": 60,
      "max": [
        1.0
      ],
      "min": [
        0.016669999808073044
      ],
      "type": "SCALAR"
    },
    {
      "bufferView": 8,
      "byteOffset": 27584,
      "componentType": 5126,
      "count": 60,
      "max": [
        -0.008477412164211273,
        0.0022738995030522346,
        0.03731171786785126,
        0.9999011754989624
      ],
      "min": [
        -0.06613484770059586,
        -0.008908930234611034,
        -0.07113766670227051,
        0.9966050386428833
      ],
      "type": "VEC4"
    },
    {
      "bufferView": 6,
      "byteOffset": 7156,
      "componentType": 5126,
      "count": 60,
      "max": [
        1.0
      ],
      "min": [
        0.016669999808073044
      ],
      "type": "SCALAR"
    },
    {
      "bufferView": 8,
      "byteOffset": 28544,
      "componentType": 5126,
      "count": 60,
      "max": [
        0.31400060653686523,
        0.0008311534184031188,
        0.03024143911898136,
        0.9992844462394714
      ],
      "min": [
        0.028585784137248993,
        -0.02208125591278076,
        -0.020725570619106293,
        0.948691725730896
      ],
      "type": "VEC4"
    },
    {
      "bufferView": 6,
      "byteOffset": 7396,
      "componentType": 5126,
      "count": 60,
      "max": [
        1.0
      ],
      "min": [
        0.016669999808073044
      ],
      "type": "SCALAR"
    },
    {
      "bufferView": 8,
      "byteOffset": 29504,
      "componentType": 5126,
      "count": 60,
      "max": [
        0.4736889898777008,
        0.04158754646778107,
        0.015720855444669724,
        0.995685875415802
      ],
      "min": [
        -0.011413582600653172,
        -0.004117514006793499,
        -0.10214129835367203,
        0.8796746134757996
      ],
      "type": "VEC4"
    },
    {
      "bufferView": 6,
      "byteOffset": 7636,
      "componentType": 5126,
      "count": 60,
      "max": [
        1.0
      ],
      "min": [
        0.016669999808073044
      ],
      "type": "SCALAR"
    },
    {
      "bufferView": 8,
      "byteOffset": 30464,
      "componentType": 5126,
      "count": 60,
      "max": [
        0.389382004737854,
        0.03223991394042969,
        0.043017007410526276,
        0.9985382556915283
      ],
      "min": [
        -0.01570175401866436,
        -0.014661448076367378,
        -0.11526141315698624,
        0.9199972748756409
      ],
      "type": "VEC4"
    },
    {
      "bufferView": 6,
      "byteOffset": 7876,
      "componentType": 5126,
      "count": 60,
      "max": [
        1.0
      ],
      "min": [
        0.016669999808073044
      ],
      "type": "SCALAR"
    },
    {
      "bufferView": 8,
      "byteOffset": 31424,
      "componentType": 5126,
      "count": 60,
      "max": [
        0.7078133821487427,
        0.25152096152305603,
        0.1909862458705902,
        0.9883671402931213
      ],
      "min": [
        0.017636867240071297,
        0.0025160331279039383,
        0.08877884596586227,
        0.6371946334838867
      ],
      "type": "VEC4"
    },
    {
      "bufferView": 6,
      "byteOffset": 8116,
      "componentType": 5126,
      "count": 1,
      "max": [
        0.016669999808073044
      ],
      "min": [
        0.016669999808073044
      ],
      "type": "SCALAR"
    },
    {
      "bufferView": 7,
      "byteOffset": 60,
      "componentType": 5126,
      "count": 1,
      "max": [
        0.0015698448987677693,
        1.0840680599212646,
        1.649689793586731
      ],
      "min": [
        0.0015698448987677693,
        1.0840680599212646,
        1.649689793586731
      ],
      "type": "VEC3"
    },
    {
      "bufferView": 6,
      "byteOffset": 8120,
      "componentType": 5126,
      "count": 60,
      "max": [
        1.0
      ],
      "min": [
        0.016669999808073044
      ],
      "type": "SCALAR"
    },
    {
      "bufferView": 8,
      "byteOffset": 32384,
      "componentType": 5126,
      "count": 60,
      "max": [
        0.7893631458282471,
        0.031068025156855583,
        -6.795173976570368e-05,
        0.9999980926513672
      ],
      "min": [
        -0.17300620675086975,
        -0.008736708201467991,
        -0.001586205675266683,
        0.6131379008293152
      ],
      "type": "VEC4"
    },
    {
      "bufferView": 6,
      "byteOffset": 8360,
      "componentType": 5126,
      "count": 60,
      "max": [
        1.0
      ],
      "min": [
        0.016669999808073044
      ],
      "type": "SCALAR"
    },
    {
      "bufferView": 8,
      "byteOffset": 33344,
      "componentType": 5126,
      "count": 60,
      "max": [
        0.999998927116394,
        9.71766930888407e-05,
        0.0372152179479599,
        0.9294387102127075
      ],
      "min": [
        0.3670945465564728,
        -0.0005948024336248636,
        -0.0064520020969212055,
        -0.14285065233707428
      ],
      "type": "VEC4"
    },
    {
      "bufferView": 6,
      "byteOffset": 8600,
      "componentType": 5126,
      "count": 1,
      "max": [
        0.016669999808073044
      ],
      "min": [
        0.016669999808073044
      ],
      "type": "SCALAR"
    },
    {
      "bufferView": 7,
      "byteOffset": 72,
      "componentType": 5126,
      "count": 1,
      "max": [
        1.046489953994751,
        0.26190000772476196,
        1.730720043182373
      ],
      "min": [
        1.046489953994751,
        0.26190000772476196,
        1.730720043182373
      ],
      "type": "VEC3"
    },
    {
      "bufferView": 6,
      "byteOffset": 8604,
      "componentType": 5126,
      "count": 75,
      "max": [
        1.25
      ],
      "min": [
        0.016669999808073044
      ],
      "type": "SCALAR"
    },
    {
      "bufferView": 8,
      "byteOffset": 34304,
      "componentType": 5126,
      "count": 75,
      "max": [
        0.8203914761543274,
        0.022634491324424744,
        -0.014248157851397991,
        0.7069631814956665
      ],
      "min": [
        0.7069631814956665,
        0.014248157851397991,
        -0.6920890808105469,
        -0.005734646692872047
      ],
      "type": "VEC4"
    },
    {
      "bufferView": 6,
      "byteOffset": 8904,
      "componentType": 5126,
      "count": 1,
      "max": [
        0.016669999808073044
      ],
      "min": [
        0.016669999808073044
      ],
      "type": "SCALAR"
    },
    {
      "bufferView": 8,
      "byteOffset": 35504,
      "componentType": 5126,
      "count": 1,
      "max": [
        0.9979833960533142,
        0.0,
        0.0,
        -0.06347518414258957
      ],
      "min": [
        0.9979833960533142,
        0.0,
        0.0,
        -0.06347518414258957
      ],
      "type": "VEC4"
    },
    {
      "bufferView": 6,
      "byteOffset": 8908,
      "componentType": 5126,
      "count": 71,
      "max": [
        1.25
      ],
      "min": [
        0.016669999808073044
      ],
      "type": "SCALAR"
    },
    {
      "bufferView": 8,
      "byteOffset": 35520,
      "componentType": 5126,
      "count": 71,
      "max": [
        0.17213033139705658,
        0.008956607431173325,
        -0.017820032313466072,
        0.9998043775558472
      ],
      "min": [
        -0.5442774891853333,
        -0.006029495038092136,
        -0.019741032272577286,
        0.838668167591095
      ],
      "type": "VEC4"
    },
    {
      "bufferView": 6,
      "byteOffset": 9192,
      "componentType": 5126,
      "count": 71,
      "max": [
        1.25
      ],
      "min": [
        0.016669999808073044
      ],
      "type": "SCALAR"
    },
    {
      "bufferView": 8,
      "byteOffset": 36656,
      "componentType": 5126,
      "count": 71,
      "max": [
        0.1636568158864975,
        0.00037935227737762034,
        0.014552305452525616,
        0.9997748732566833
      ],
      "min": [
        -0.33994126319885254,
        -0.06372573226690292,
        -0.004300539847463369,
        0.9381723403930664
      ],
      "type": "VEC4"
    },
    {
      "bufferView": 6,
      "byteOffset": 9476,
      "componentType": 5126,
      "count": 71,
      "max": [
        1.25
      ],
      "min": [
        0.016669999808073044
      ],
      "type": "SCALAR"
    },
    {
      "bufferView": 8,
      "byteOffset": 37792,
      "componentType": 5126,
      "count": 71,
      "max": [
        0.5224606990814209,
        0.14979727566242218,
        0.061623089015483856,
        0.9950287938117981
      ],
      "min": [
        -0.4834972620010376,
        0.008069646544754505,
        -0.006956232246011496,
        0.8525967597961426
      ],
      "type": "VEC4"
    },
    {
      "bufferView": 6,
      "byteOffset": 9760,
      "componentType": 5126,
      "count": 70,
      "max": [
        1.25
      ],
      "min": [
        0.016669999808073044
      ],
      "type": "SCALAR"
    },
    {
      "bufferView": 8,
      "byteOffset": 38928,
      "componentType": 5126,
      "count": 70,
      "max": [
        -0.32046839594841003,
        -0.0020746784284710884,
        0.015330369584262371,
        0.9471328854560852
      ],
      "min": [
        -0.44990840554237366,
        -0.025572091341018677,
        -0.1065724715590477,
        0.8863243460655212
      ],
      "type": "VEC4"
    },
    {
      "bufferView": 6,
      "byteOffset": 10040,
      "componentType": 5126,
      "count": 71,
      "max": [
        1.25
      ],
      "min": [
        0.016669999808073044
      ],
      "type": "SCALAR"
    },
    {
      "bufferView": 8,
      "byteOffset": 40048,
      "componentType": 5126,
      "count": 71,
      "max": [
        0.41953766345977783,
        -0.004483141470700502,
        0.1953873634338379,
        0.9889885783195496
      ],
      "min": [
        -0.21647915244102478,
        -0.10393156111240387,
        0.002434246242046356,
        0.907723605632782
      ],
      "type": "VEC4"
    },
    {
      "bufferView": 6,
      "byteOffset": 10324,
      "componentType": 5126,
      "count": 71,
      "max": [
        1.25
      ],
      "min": [
        0.016669999808073044
      ],
      "type": "SCALAR"
    },
    {
      "bufferView": 8,
      "byteOffset": 41184,
      "componentType": 5126,
      "count": 71,
      "max": [
        0.7069900631904602,
        0.0001732411328703165,
        0.0001732411328703165,
        0.9997125267982483
      ],
      "min": [
        -0.5856727361679077,
        -0.013256430625915527,
        -0.01597856916487217,
        0.7072234153747559
      ],
      "type": "VEC4"
    },
    {
      "bufferView": 6,
      "byteOffset": 10608,
      "componentType": 5126,
      "count": 1,
      "max": [
        0.016669999808073044
      ],
      "min": [
        0.016669999808073044
      ],
      "type": "SCALAR"
    },
    {
      "bufferView": 7,
      "byteOffset": 84,
      "componentType": 5126,
      "count": 1,
      "max": [
        0.0015698448987677693,
        1.0840680599212646,
        1.649689793586731
      ],
      "min": [
        0.0015698448987677693,
        1.0840680599212646,
        1.649689793586731
      ],
      "type": "VEC3"
    },
    {
      "bufferView": 6,
      "byteOffset": 10612,
      "componentType": 5126,
      "count": 61,
      "max": [
        1.25
      ],
      "min": [
        0.016669999808073044
      ],
      "type": "SCALAR"
    },
    {
      "bufferView": 8,
      "byteOffset": 42320,
      "componentType": 5126,
      "count": 61,
      "max": [
        0.8119549751281738,
        0.03203969821333885,
        8.24466987978667e-05,
        0.9999943971633911
      ],
      "min": [
        -0.2265312671661377,
        -0.010890776291489601,
        -0.0016294141532853246,
        0.5828393697738647
      ],
      "type": "VEC4"
    },
    {
      "bufferView": 6,
      "byteOffset": 10856,
      "componentType": 5126,
      "count": 61,
      "max": [
        1.25
      ],
      "min": [
        0.016669999808073044
      ],
      "type": "SCALAR"
    },
    {
      "bufferView": 8,
      "byteOffset": 43296,
      "componentType": 5126,
      "count": 61,
      "max": [
        0.9998759627342224,
        3.771734782276326e-06,
        0.0389070063829422,
        0.9694189429283142
      ],
      "min": [
        0.2423085868358612,
        -0.000641919847112149,
        -3.964565257774666e-05,
        0.01575087010860443
      ],
      "type": "VEC4"
    },
    {
      "bufferView": 6,
      "byteOffset": 11100,
      "componentType": 5126,
      "count": 1,
      "max": [
        1.0
      ],
      "min": [
        1.0
      ],
      "type": "SCALAR"
    },
    {
      "bufferView": 7,
      "byteOffset": 96,
      "componentType": 5126,
      "count": 1,
      "max": [
        1.046489953994751,
        0.26190000772476196,
        1.730720043182373
      ],
      "min": [
        1.046489953994751,
        0.26190000772476196,
        1.730720043182373
      ],
      "type": "VEC3"
    },
    {
      "bufferView": 6,
      "byteOffset": 11104,
      "componentType": 5126,
      "count": 1,
      "max": [
        1.0
      ],
      "min": [
        1.0
      ],
      "type": "SCALAR"
    },
    {
      "bufferView": 8,
      "byteOffset": 44272,
      "componentType": 5126,
      "count": 1,
      "max": [
        0.7069631814956665,
        0.014248157851397991,
        -0.014248157851397991,
        0.7069631814956665
      ],
      "min": [
        0.7069631814956665,
        0.014248157851397991,
        -0.014248157851397991,
        0.7069631814956665
      ],
      "type": "VEC4"
    },
    {
      "bufferView": 6,
      "byteOffset": 11108,
      "componentType": 5126,
      "count": 1,
      "max": [
        1.0
      ],
      "min": [
        1.0
      ],
      "type": "SCALAR"
    },
    {
      "bufferView": 8,
      "byteOffset": 44288,
      "componentType": 5126,
      "count": 1,
      "max": [
        0.9979833960533142,
        0.0,
        0.0,
        -0.06347518414258957
      ],
      "min": [
        0.9979833960533142,
        0.0,
        0.0,
        -0.06347518414258957
      ],
      "type": "VEC4"
    },
    {
      "bufferView": 6,
      "byteOffset": 11112,
      "componentType": 5126,
      "count": 1,
      "max": [
        1.0
      ],
      "min": [
        1.0
      ],
      "type": "SCALAR"
    },
    {
      "bufferView": 8,
      "byteOffset": 44304,
      "componentType": 5126,
      "count": 1,
      "max": [
        -0.06613484770059586,
        0.0022738995030522346,
        0.03731171786785126,
        0.9971102476119995
      ],
      "min": [
        -0.06613484770059586,
        0.0022738995030522346,
        0.03731171786785126,
        0.9971102476119995
      ],
      "type": "VEC4"
    },
    {
      "bufferView": 6,
      "byteOffset": 11116,
      "componentType": 5126,
      "count": 1,
      "max": [
        1.0
      ],
      "min": [
        1.0
      ],
      "type": "SCALAR"
    },
    {
      "bufferView": 8,
      "byteOffset": 44320,
      "componentType": 5126,
      "count": 1,
      "max": [
        0.028585784137248993,
        0.000688346044626087,
        0.029694009572267532,
        0.9991499185562134
      ],
      "min": [
        0.028585784137248993,
        0.000688346044626087,
        0.029694009572267532,
        0.9991499185562134
      ],
      "type": "VEC4"
    },
    {
      "bufferView": 6,
      "byteOffset": 11120,
      "componentType": 5126,
      "count": 1,
      "max": [
        1.0
      ],
      "min": [
        1.0
      ],
      "type": "SCALAR"
    },
    {
      "bufferView": 8,
      "byteOffset": 44336,
      "componentType": 5126,
      "count": 1,
      "max": [
        -0.011413582600653172,
        -0.004117514006793499,
        -0.10214129835367203,
        0.9946959018707275
      ],
      "min": [
        -0.011413582600653172,
        -0.004117514006793499,
        -0.10214129835367203,
        0.9946959018707275
      ],
      "type": "VEC4"
    },
    {
      "bufferView": 6,
      "byteOffset": 11124,
      "componentType": 5126,
      "count": 1,
      "max": [
        1.0
      ],
      "min": [
        1.0
      ],
      "type": "SCALAR"
    },
    {
      "bufferView": 8,
      "byteOffset": 44352,
      "componentType": 5126,
      "count": 1,
      "max": [
        -0.01570175401866436,
        -0.0015033731469884515,
        -0.11526141315698624,
        0.993209958076477
      ],
      "min": [
        -0.01570175401866436,
        -0.0015033731469884515,
        -0.11526141315698624,
        0.993209958076477
      ],
      "type": "VEC4"
    },
    {
      "bufferView": 6,
      "byteOffset": 11128,
      "componentType": 5126,
      "count": 1,
      "max": [
        1.0
      ],
      "min": [
        1.0
      ],
      "type": "SCALAR"
    },
    {
      "bufferView": 8,
      "byteOffset": 44368,
      "componentType": 5126,
      "count": 1,
      "max": [
        0.017636867240071297,
        0.0025160331279039383,
        0.1665133833885193,
        0.9858782291412354
      ],
      "min": [
        0.017636867240071297,
        0.0025160331279039383,
        0.1665133833885193,
        0.9858782291412354
      ],
      "type": "VEC4"
    },
    {
      "bufferView": 6,
      "byteOffset": 11132,
      "componentType": 5126,
      "count": 1,
      "max": [
        1.0
      ],
      "min": [
        1.0
      ],
      "type": "SCALAR"
    },
    {
      "bufferView": 7,
      "byteOffset": 108,
      "componentType": 5126,
      "count": 1,
      "max": [
        0.0015698448987677693,
        1.0840680599212646,
        1.649689793586731
      ],
      "min": [
        0.0015698448987677693,
        1.0840680599212646,
        1.649689793586731
      ],
      "type": "VEC3"
    },
    {
      "bufferView": 6,
      "byteOffset": 11136,
      "componentType": 5126,
      "count": 1,
      "max": [
        1.0
      ],
      "min": [
        1.0
      ],
      "type": "SCALAR"
    },
    {
      "bufferView": 8,
      "byteOffset": 44384,
      "componentType": 5126,
      "count": 1,
      "max": [
        -0.05103098973631859,
        -0.003790549235418439,
        -0.0002807322016451508,
        0.9986898899078369
      ],
      "min": [
        -0.05103098973631859,
        -0.003790549235418439,
        -0.0002807322016451508,
        0.9986898899078369
      ],
      "type": "VEC4"
    }
  ],
  "animations": [
    {
      "channels": [
        {
          "sampler": 0,
          "target": {
            "node": 9,
            "path": "translation"
          }
        },
        {
          "sampler": 1,
          "target": {
            "node": 9,
            "path": "rotation"
          }
        },
        {
          "sampler": 2,
          "target": {
            "node": 10,
            "path": "rotation"
          }
        },
        {
          "sampler": 3,
          "target": {
            "node": 11,
            "path": "rotation"
          }
        },
        {
          "sampler": 4,
          "target": {
            "node": 12,
            "path": "rotation"
          }
        },
        {
          "sampler": 5,
          "target": {
            "node": 13,
            "path": "rotation"
          }
        },
        {
          "sampler": 6,
          "target": {
            "node": 14,
            "path": "rotation"
          }
        },
        {
          "sampler": 7,
          "target": {
            "node": 15,
            "path": "rotation"
          }
        },
        {
          "sampler": 8,
          "target": {
            "node": 16,
            "path": "rotation"
          }
        },
        {
          "sampler": 9,
          "target": {
            "node": 17,
            "path": "translation"
          }
        },
        {
          "sampler": 10,
          "target": {
            "node": 17,
            "path": "rotation"
          }
        }
      ],
      "name": "movimiento",
      "samplers": [
        {
          "input": 13,
          "interpolation": "LINEAR",
          "output": 14
        },
        {
          "input": 15,
          "interpolation": "LINEAR",
          "output": 16
        },
        {
          "input": 17,
          "interpolation": "LINEAR",
          "output": 18
        },
        {
          "input": 19,
          "interpolation": "LINEAR",
          "output": 20
        },
        {
          "input": 21,
          "interpolation": "LINEAR",
          "output": 22
        },
        {
          "input": 23,
          "interpolation": "LINEAR",
          "output": 24
        },
        {
          "input": 25,
          "interpolation": "LINEAR",
          "output": 26
        },
        {
          "input": 27,
          "interpolation": "LINEAR",
          "output": 28
        },
        {
          "input": 29,
          "interpolation": "LINEAR",
          "output": 30
        },
        {
          "input": 31,
          "interpolation": "LINEAR",
          "output": 32
        },
        {
          "input": 33,
          "interpolation": "LINEAR",
          "output": 34
        }
      ]
    },
    {
      "channels": [
        {
          "sampler": 0,
          "target": {
            "node": 9,
            "path": "translation"
          }
        },
        {
          "sampler": 1,
          "target": {
            "node": 9,
            "path": "rotation"
          }
        },
        {
          "sampler": 2,
          "target": {
            "node": 10,
            "path": "rotation"
          }
        },
        {
          "sampler": 3,
          "target": {
            "node": 11,
            "path": "rotation"
          }
        },
        {
          "sampler": 4,
          "target": {
            "node": 12,
            "path": "rotation"
          }
        },
        {
          "sampler": 5,
          "target": {
            "node": 13,
            "path": "rotation"
          }
        },
        {
          "sampler": 6,
          "target": {
            "node": 14,
            "path": "rotation"
          }
        },
        {
          "sampler": 7,
          "target": {
            "node": 15,
            "path": "rotation"
          }
        },
        {
          "sampler": 8,
          "target": {
            "node": 16,
            "path": "rotation"
          }
        },
        {
          "sampler": 9,
          "target": {
            "node": 17,
            "path": "translation"
          }
        },
        {
          "sampler": 10,
          "target": {
            "node": 17,
            "path": "rotation"
          }
        },
        {
          "sampler": 11,
          "target": {
            "node": 18,
            "path": "rotation"
          }
        }
      ],
      "name": "idle",
      "samplers": [
        {
          "input": 35,
          "interpolation": "LINEAR",
          "output": 36
        },
        {
          "input": 37,
          "interpolation": "LINEAR",
          "output": 38
        },
        {
          "input": 39,
          "interpolation": "LINEAR",
          "output": 40
        },
        {
          "input": 41,
          "interpolation": "LINEAR",
          "output": 42
        },
        {
          "input": 43,
          "interpolation": "LINEAR",
          "output": 44
        },
        {
          "input": 45,
          "interpolation": "LINEAR",
          "output": 46
        },
        {
          "input": 47,
          "interpolation": "LINEAR",
          "output": 48
        },
        {
          "input": 49,
          "interpolation": "LINEAR",
          "output": 50
        },
        {
          "input": 51,
          "interpolation": "LINEAR",
          "output": 52
        },
        {
          "input": 53,
          "interpolation": "LINEAR",
          "output": 54
        },
        {
          "input": 55,
          "interpolation": "LINEAR",
          "output": 56
        },
        {
          "input": 57,
          "interpolation": "LINEAR",
          "output": 58
        }
      ]
    },
    {
      "channels": [
        {
          "sampler": 0,
          "target": {
            "node": 9,
            "path": "translation"
          }
        },
        {
          "sampler": 1,
          "target": {
            "node": 9,
            "path": "rotation"
          }
        },
        {
          "sampler": 2,
          "target": {
            "node": 10,
            "path": "rotation"
          }
        },
        {
          "sampler": 3,
          "target": {
            "node": 11,
            "path": "rotation"
          }
        },
        {
          "sampler": 4,
          "target": {
            "node": 12,
            "path": "rotation"
          }
        },
        {
          "sampler": 5,
          "target": {
            "node": 13,
            "path": "rotation"
          }
        },
        {
          "sampler": 6,
          "target": {
            "node": 14,
            "path": "rotation"
          }
        },
        {
          "sampler": 7,
          "target": {
            "node": 15,
            "path": "rotation"
          }
        },
        {
          "sampler": 8,
          "target": {
            "node": 17,
            "path": "translation"
          }
        },
        {
          "sampler": 9,
          "target": {
            "node": 17,
            "path": "rotation"
          }
        },
        {
          "sampler": 10,
          "target": {
            "node": 18,
            "path": "rotation"
          }
        }
      ],
      "name": "ataque",
      "samplers": [
        {
          "input": 59,
          "interpolation": "LINEAR",
          "output": 60
        },
        {
          "input": 61,
          "interpolation": "LINEAR",
          "output": 62
        },
        {
          "input": 63,
          "interpolation": "LINEAR",
          "output": 64
        },
        {
          "input": 65,
          "interpolation": "LINEAR",
          "output": 66
        },
        {
          "input": 67,
          "interpolation": "LINEAR",
          "output": 68
        },
        {
          "input": 69,
          "interpolation": "LINEAR",
          "output": 70
        },
        {
          "input": 71,
          "interpolation": "LINEAR",
          "output": 72
        },
        {
          "input": 73,
          "interpolation": "LINEAR",
          "output": 74
        },
        {
          "input": 75,
          "interpolation": "LINEAR",
          "output": 76
        },
        {
          "input": 77,
          "interpolation": "LINEAR",
          "output": 78
        },
        {
          "input": 79,
          "interpolation": "LINEAR",
          "output": 80
        }
      ]
    },
    {
      "channels": [
        {
          "sampler": 0,
          "target": {
            "node": 9,
            "path": "translation"
          }
        },
        {
          "sampler": 1,
          "target": {
            "node": 9,
            "path": "rotation"
          }
        },
        {
          "sampler": 2,
          "target": {
            "node": 10,
            "path": "rotation"
          }
        },
        {
          "sampler": 3,
          "target": {
            "node": 11,
            "path": "rotation"
          }
        },
        {
          "sampler": 4,
          "target": {
            "node": 12,
            "path": "rotation"
          }
        },
        {
          "sampler": 5,
          "target": {
            "node": 13,
            "path": "rotation"
          }
        },
        {
          "sampler": 6,
          "target": {
            "node": 14,
            "path": "rotation"
          }
        },
        {
          "sampler": 7,
          "target": {
            "node": 15,
            "path": "rotation"
          }
        },
        {
          "sampler": 8,
          "target": {
            "node": 16,
            "path": "rotation"
          }
        },
        {
          "sampler": 9,
          "target": {
            "node": 17,
            "path": "translation"
          }
        },
        {
          "sampler": 10,
          "target": {
            "node": 17,
            "path": "rotation"
          }
        },
        {
          "sampler": 11,
          "target": {
            "node": 18,
            "path": "rotation"
          }
        }
      ],
      "name": "muerte",
      "samplers": [
        {
          "input": 81,
          "interpolation": "LINEAR",
          "output": 82
        },
        {
          "input": 83,
          "interpolation": "LINEAR",
          "output": 84
        },
        {
          "input": 85,
          "interpolation": "LINEAR",
          "output": 86
        },
        {
          "input": 87,
          "interpolation": "LINEAR",
          "output": 88
        },
        {
          "input": 89,
          "interpolation": "LINEAR",
          "output": 90
        },
        {
          "input": 91,
          "interpolation": "LINEAR",
          "output": 92
        },
        {
          "input": 93,
          "interpolation": "LINEAR",
          "output": 94
        },
        {
          "input": 95,
          "interpolation": "LINEAR",
          "output": 96
        },
        {
          "input": 97,
          "interpolation": "LINEAR",
          "output": 98
        },
        {
          "input": 99,
          "interpolation": "LINEAR",
          "output": 100
        },
        {
          "input": 101,
          "interpolation": "LINEAR",
          "output": 102
        },
        {
          "input": 103,
          "interpolation": "LINEAR",
          "output": 104
        }
      ]
    },
    {
      "channels": [
        {
          "sampler": 0,
          "target": {
            "node": 9,
            "path": "translation"
          }
        },
        {
          "sampler": 1,
          "target": {
            "node": 9,
            "path": "rotation"
          }
        },
        {
          "sampler": 2,
          "target": {
            "node": 10,
            "path": "rotation"
          }
        },
        {
          "sampler": 3,
          "target": {
            "node": 11,
            "path": "rotation"
          }
        },
        {
          "sampler": 4,
          "target": {
            "node": 12,
            "path": "rotation"
          }
        },
        {
          "sampler": 5,
          "target": {
            "node": 13,
            "path": "rotation"
          }
        },
        {
          "sampler": 6,
          "target": {
            "node": 14,
            "path": "rotation"
          }
        },
        {
          "sampler": 7,
          "target": {
            "node": 15,
            "path": "rotation"
          }
        },
        {
          "sampler": 8,
          "target": {
            "node": 17,
            "path": "translation"
          }
        },
        {
          "sampler": 9,
          "target": {
            "node": 17,
            "path": "rotation"
          }
        }
      ],
      "name": "ArmatureAction",
      "samplers": [
        {
          "input": 105,
          "interpolation": "LINEAR",
          "output": 106
        },
        {
          "input": 107,
          "interpolation": "LINEAR",
          "output": 108
        },
        {
          "input": 109,
          "interpolation": "LINEAR",
          "output": 110
        },
        {
          "input": 111,
          "interpolation": "LINEAR",
          "output": 112
        },
        {
          "input": 113,
          "interpolation": "LINEAR",
          "output": 114
        },
        {
          "input": 115,
          "interpolation": "LINEAR",
          "output": 116
        },
        {
          "input": 117,
          "interpolation": "LINEAR",
          "output": 118
        },
        {
          "input": 119,
          "interpolation": "LINEAR",
          "output": 120
        },
        {
          "input": 121,
          "interpolation": "LINEAR",
          "output": 122
        },
        {
          "input": 123,
          "interpolation": "LINEAR",
          "output": 124
        }
      ]
    }
  ],
  "asset": {
    "extras": {
      "author": "wollfang (https://sketchfab.com/leonardotheturtle37)",
      "license": "CC-BY-4.0 (http://creativecommons.org/licenses/by/4.0/)",
      "source": "https://sketchfab.com/3d-models/sus-eye-a57447b72b774a5d99caba699604c81d",
      "title": "sus eye 👁‍🗨 👁"
    },
    "generator": "Sketchfab-16.21.0",
    "version": "2.0"
  },
  "bufferViews": [
    {
      "buffer": 0,
      "byteLength": 80216,
      "byteStride": 8,
      "name": "shortBufferViews",
      "target": 34962
    },
    {
      "buffer": 0,
      "byteLength": 154128,
      "byteOffset": 80216,
      "name": "floatBufferViews",
      "target": 34963
    },
    {
      "buffer": 0,
      "byteLength": 80216,
      "byteOffset": 234344,
      "byteStride": 8,
      "name": "floatBufferViews",
      "target": 34962
    },
    {
      "buffer": 0,
      "byteLength": 240648,
      "byteOffset": 314560,
      "byteStride": 12,
      "name": "floatBufferViews",
      "target": 34962
    },
    {
      "buffer": 0,
      "byteLength": 160432,
      "byteOffset": 555208,
      "byteStride": 16,
      "name": "floatBufferViews",
      "target": 34962
    },
    {
      "buffer": 0,
      "byteLength": 768,
      "byteOffset": 715640,
      "name": "floatBufferViews"
    },
    {
      "buffer": 0,
      "byteLength": 11140,
      "byteOffset": 716408,
      "name": "floatBufferViews"
    },
    {
      "buffer": 0,
      "byteLength": 120,
      "byteOffset": 727548,
      "byteStride": 12,
      "name": "floatBufferViews"
    },
    {
      "buffer": 0,
      "byteLength": 44400,
      "byteOffset": 727668,
      "byteStride": 16,
      "name": "floatBufferViews"
    }
  ],
  "buffers": [
    {
      "byteLength": 772068,
      "uri": "scene.bin"
    }
  ],
  "extensionsRequired": [
    "KHR_materials_pbrSpecularGlossiness"
  ],
  "extensionsUsed": [
    "KHR_materials_pbrSpecularGlossiness"
  ],
  "images": [
    {
      "uri": "textures/cuerpo_diffuse.png"
    },
    {
      "uri": "textures/material_diffuse.png"
    }
  ],
  "materials": [
    {
      "alphaMode": "BLEND",
      "doubleSided": true,
      "extensions": {
        "KHR_materials_pbrSpecularGlossiness": {
          "diffuseFactor": [
            0.7883,
            0.7883,
            0.7883,
            0.0
          ],
          "diffuseTexture": {
            "index": 0
          },
          "glossinessFactor": 0.650724,
          "specularFactor": [
            0.0,
            0.0,
            0.0
          ]
        }
      },
      "name": "cuerpo"
    },
    {
      "doubleSided": true,
      "extensions": {
        "KHR_materials_pbrSpecularGlossiness": {
          "diffuseFactor": [
            0.48952,
            0.48952,
            0.48952,
            1.0
          ],
          "diffuseTexture": {
            "index": 1
          },
          "glossinessFactor": 0.851944,
          "specularFactor": [
            0.0,
            0.0,
            0.0
          ]
        }
      },
      "name": "material"
    }
  ],
  "meshes": [
    {
      "name": "Object_0",
      "primitives": [
        {
          "attributes": {
            "JOINTS_0": 9,
            "NORMAL": 1,
            "POSITION": 0,
            "TEXCOORD_0": 2,
            "WEIGHTS_0": 10
          },
          "indices": 3,
          "material": 0,
          "mode": 4
        }
      ]
    },
    {
      "name": "Object_1",
      "primitives": [
        {
          "attributes": {
            "JOINTS_0": 11,
            "NORMAL": 5,
            "POSITION": 4,
            "TEXCOORD_0": 6,
            "WEIGHTS_0": 12
          },
          "indices": 7,
          "material": 1,
          "mode": 4
        }
      ]
    }
  ],
  "nodes": [
    {
      "children": [
        1
      ],
      "matrix": [
        2.3521041870117188,
        0.0,
        0.0,
        0.0,
        0.0,
        5.22272044947529e-16,
        -2.3521041870117188,
        0.0,
        0.0,
        2.3521041870117188,
        5.22272044947529e-16,
        0.0,
        0.0,
        0.0,
        0.0,
        1.0
      ],
      "name": "Sketchfab_model"
    },
    {
      "children": [
        2
      ],
      "name": "root"
    },
    {
      "children": [
        3
      ],
      "matrix": [
        1.0,
        0.0,
        0.0,
        0.0,
        0.0,
        2.220446049250313e-16,
        1.0,
        0.0,
        0.0,
        -1.0,
        2.220446049250313e-16,
        0.0,
        0.0,
        0.0,
        0.0,
        1.0
      ],
      "name": "GLTF_SceneRootNode"
    },
    {
      "children": [
        4
      ],
      "matrix": [
        0.21223114430904388,
        0.0,
        0.0,
        0.0,
        0.0,
        4.7124780590888956e-17,
        -0.21223114430904388,
        0.0,
        0.0,
        0.21223114430904388,
        4.7124780590888956e-17,
        0.0,
        0.0,
        0.0,
        0.0,
        1.0
      ],
      "name": "Sketchfab_model_0"
    },
    {
      "children": [
        5
      ],
      "name": "Root_1"
    },
    {
      "children": [
        6
      ],
      "name": "Armature_2",
      "translation": [
        -0.8930500149726868,
        0.5146499872207642,
        -0.7231199741363525
      ]
    },
    {
      "children": [
        7,
        21,
        24,
        19,
        22
      ],
      "name": "GLTF_created_0"
    },
    {
      "children": [
        8
      ],
      "name": "GLTF_created_0_rootJoint"
    },
    {
      "children": [
        9
      ],
      "name": "Armature_rootJoint_3"
    },
    {
      "children": [
        10,
        16,
        17,
        18
      ],
      "name": "general_Armature_4",
      "rotation": [
        0.7071068286895752,
        0.0,
        0.0,
        0.7071068286895752
      ]
    },
    {
      "children": [
        11
      ],
      "name": "cuerpo1_Armature_5",
      "rotation": [
        0.9953980445861816,
        0.0,
        0.0,
        -0.09582643210887909
      ],
      "scale": [
        1.0,
        0.9999953508377075,
        0.9999953508377075
      ],
      "translation": [
        0.0,
        1.1012200117111206,
        0.7870699763298035
      ]
    },
    {
      "children": [
        12
      ],
      "name": "cuerpo2_Armature_6",
      "rotation": [
        -0.05308506265282631,
        0.0,
        0.0,
        0.9985899925231934
      ],
      "scale": [
        1.0,
        0.9999960064888,
        0.9999960064888
      ],
      "translation": [
        0.0,
        1.2233500480651855,
        0.0
      ]
    },
    {
      "children": [
        13
      ],
      "name": "cuerpo3_Armature_7",
      "rotation": [
        0.030038416385650635,
        0.0,
        0.0,
        0.9995487332344055
      ],
      "scale": [
        1.0,
        1.0000046491622925,
        1.0000046491622925
      ],
      "translation": [
        0.0,
        0.790369987487793,
        0.0
      ]
    },
    {
      "children": [
        14
      ],
      "name": "cuerpo4_Armature_8",
      "rotation": [
        0.16032426059246063,
        0.0,
        0.0,
        0.9870644211769104
      ],
      "scale": [
        1.0,
        0.999997615814209,
        0.999997615814209
      ],
      "translation": [
        0.0,
        0.8891900181770325,
        0.0
      ]
    },
    {
      "children": [
        15
      ],
      "name": "cuerpo5_Armature_9",
      "rotation": [
        -0.009485427290201187,
        0.0,
        0.0,
        0.9999549984931946
      ],
      "scale": [
        1.0,
        0.9999999403953552,
        0.9999999403953552
      ],
      "translation": [
        0.0,
        1.309630036354065,
        0.0
      ]
    },
    {
      "name": "cuerpo6_Armature_10",
      "rotation": [
        0.0012849968625232577,
        0.0,
        0.0,
        0.9999991655349731
      ],
      "scale": [
        1.0,
        1.0000033378601074,
        1.0000033378601074
      ],
      "translation": [
        0.0,
        1.304260015487671,
        0.0
      ]
    },
    {
      "name": "ojo_Armature_11",
      "rotation": [
        0.7069900631904602,
        0.0001732411328703165,
        0.0001732411328703165,
        0.7072234153747559
      ],
      "scale": [
        1.0000001192092896,
        1.0,
        1.0000001192092896
      ],
      "translation": [
        0.0,
        1.0842599868774414,
        0.9671000242233276
      ]
    },
    {
      "name": "parpadoSup_Armature_12",
      "rotation": [
        -0.058482829481363297,
        -0.0001653096405789256,
        0.003380929119884968,
        0.9982826709747314
      ],
      "scale": [
        1.0000083446502686,
        1.0000025033950806,
        0.9999959468841553
      ],
      "translation": [
        0.0015699999639764428,
        1.0811100006103516,
        1.6518499851226807
      ]
    },
    {
      "name": "parpadoInf_Armature_13",
      "rotation": [
        0.9998480677604675,
        0.0,
        0.0,
        0.017430653795599937
      ],
      "scale": [
        1.0,
        0.9999975562095642,
        0.9996575713157654
      ],
      "translation": [
        -0.0014700000174343586,
        1.1335999965667725,
        1.6815799474716187
      ]
    },
    {
      "children": [
        20
      ],
      "name": "cuerpo_0_15_correction"
    },
    {
      "name": "cuerpo_0_15"
    },
    {
      "mesh": 0,
      "name": "Object_21",
      "skin": 0
    },
    {
      "children": [
        23
      ],
      "name": "ojo_0_17_correction"
    },
    {
      "name": "ojo_0_17"
    },
    {
      "mesh": 1,
      "name": "Object_24",
      "skin": 0
    }
  ],
  "samplers": [
    {
      "magFilter": 9729,
      "minFilter": 9987,
      "wrapS": 10497,
      "wrapT": 10497
    }
  ],
  "scene": 0,
  "scenes": [
    {
      "name": "Sketchfab_Scene",
      "nodes": [
        0
      ]
    }
  ],
  "skins": [
    {
      "inverseBindMatrices": 8,
      "joints": [
        7,
        8,
        9,
        10,
        11,
        12,
        13,
        14,
        15,
        16,
        17,
        18
      ],
      "skeleton": 7
    }
  ],
  "textures": [
    {
      "sampler": 0,
      "source": 0
    },
    {
      "sampler": 0,
      "source": 1
    }
  ]
}
